<svg width="159" height="55" viewBox="0 0 159 55" fill="none" xmlns="http://www.w3.org/2000/svg">
<g opacity="0.6">
<path d="M124.118 13.6602C124.711 13.5963 125.305 13.5199 125.899 13.4689C126.293 13.4356 126.467 13.2525 126.483 12.8513C126.507 12.2577 126.583 11.6646 126.64 11.0721C126.785 11.2818 126.929 11.4884 127.074 11.6981L127.086 11.7283C127.122 11.7872 127.159 11.8492 127.196 11.908L127.195 11.9143C127.245 12.0131 127.293 12.1115 127.337 12.2095L127.365 12.2671C127.399 12.3225 127.429 12.3805 127.463 12.4359C127.552 12.6318 127.617 12.8405 127.737 13.0152C127.777 13.0745 127.95 13.0436 128.061 13.052C128.135 13.0207 128.21 12.9862 128.288 12.9552L128.307 12.9577C128.814 12.9301 129.319 12.9021 129.949 12.8686C129.533 13.2386 129.173 13.5462 128.829 13.8719C128.379 14.3009 128.385 14.308 128.703 14.8171C128.929 15.1774 129.163 15.5324 129.31 15.9807C129.095 15.8757 128.879 15.7677 128.664 15.6627C128.556 15.7024 128.449 15.742 128.344 15.7821C128.265 15.708 128.186 15.6308 128.102 15.5657C127.584 15.1696 127.572 15.1617 127.092 15.6248C126.704 15.9986 126.347 16.4018 125.86 16.918C125.942 16.3066 126.026 15.8193 126.066 15.3262C126.086 15.0781 126.028 14.8227 126.007 14.5723C125.991 14.5225 125.959 14.5023 125.907 14.5081L125.892 14.5252C125.827 14.4848 125.766 14.4448 125.704 14.4049C125.22 14.2738 124.74 14.1431 124.256 14.012C124.203 13.9573 124.153 13.903 124.1 13.8483C124.107 13.789 124.113 13.7262 124.117 13.6665L124.118 13.6602Z" fill="#C7A587"/>
<path d="M134.549 26.2256C134.627 26.0963 134.643 25.7872 134.884 26.1083C135.068 26.3551 135.262 26.5937 135.45 26.8378C135.654 26.9126 135.857 26.9905 136.061 27.0652C135.606 27.3221 135.646 27.6863 135.821 28.0969C135.95 28.3967 135.751 28.3161 135.594 28.2698C134.978 27.7909 134.684 28.3486 134.264 28.715C134.543 27.8219 134.185 27.3487 133.321 27.1987C133.735 26.7998 134.66 27.1612 134.552 26.226L134.549 26.2256Z" fill="#BF9770"/>
<path d="M128.349 15.7733C128.456 15.7337 128.564 15.694 128.668 15.6539C129.056 16.5247 129.423 17.4087 129.845 18.2649C130.39 19.3694 130.989 20.4494 131.545 21.5489C131.618 21.692 131.569 21.895 131.471 22.1041C131.277 21.8054 131.085 21.5035 130.892 21.2047C130.577 20.55 130.269 19.893 129.95 19.2442C129.774 18.8874 129.582 18.5379 129.396 18.1829C129.05 17.3781 128.701 16.5759 128.355 15.771L128.349 15.7733Z" fill="#9C7B6D"/>
<path d="M132.446 23.8597C132.098 23.4545 131.801 23.0245 131.919 22.4052L132.647 23.7627C132.582 23.7953 132.514 23.8275 132.449 23.8601L132.446 23.8597Z" fill="#876762"/>
<path d="M143.051 25.485C143.133 25.3913 143.269 25.3109 143.292 25.2029C143.418 24.6672 143.766 24.5516 144.249 24.6604C144.357 24.7351 144.468 24.8103 144.577 24.8819C144.925 25.4014 144.925 25.8363 144.575 26.0659C144.159 26.3375 143.775 26.2292 143.453 25.7481C143.318 25.6603 143.186 25.5697 143.051 25.4819L143.051 25.485Z" fill="#BF9770"/>
<path d="M147.248 17.2335C147.01 17.8685 146.751 18.4944 146.544 19.1367C146.284 19.9309 146.071 20.7406 145.836 21.5412C145.776 21.7047 145.72 21.8654 145.66 22.0288C145.618 22.128 145.573 22.2268 145.531 22.326C145.475 22.3852 145.419 22.4445 145.363 22.5037C145.313 22.497 145.264 22.4841 145.216 22.4587C145.199 22.3262 145.133 22.1714 145.176 22.0629C145.804 20.4447 146.447 18.8318 147.087 17.2153C147.141 17.2193 147.194 17.2264 147.25 17.237L147.248 17.2335Z" fill="#9C7B6D"/>
<path d="M143.051 25.4852C143.186 25.573 143.317 25.6636 143.452 25.7514C142.663 25.8527 141.872 25.925 141.09 26.0654C140.034 26.258 138.989 26.5093 137.933 26.7211C137.723 26.763 137.499 26.7427 137.284 26.7521C137.413 26.6678 137.533 26.5345 137.678 26.503C139.359 26.1491 141.044 25.8116 142.726 25.4769C142.831 25.456 142.943 25.4804 143.051 25.4821L143.051 25.4852Z" fill="#9C7B6D"/>
<path d="M136.061 27.0654C135.858 26.9906 135.654 26.9127 135.45 26.8379C136.064 26.8085 136.677 26.7791 137.294 26.7502C136.884 26.8543 136.471 26.9612 136.061 27.0654Z" fill="#9C7B6D"/>
<path d="M145.213 22.4584C145.258 22.4834 145.306 22.4994 145.36 22.5034C145.198 22.8565 145.033 23.2122 144.871 23.5653C144.833 23.5095 144.796 23.4538 144.759 23.3949C144.82 23.0378 144.844 22.6633 145.217 22.4557L145.213 22.4584Z" fill="#C7A587"/>
<path d="M144.756 23.3945C144.793 23.4503 144.831 23.506 144.867 23.5649C144.77 24.006 144.67 24.4435 144.573 24.8846C144.465 24.8099 144.354 24.7347 144.245 24.6631C144.416 24.2414 144.584 23.8193 144.756 23.3976L144.756 23.3945Z" fill="#9C7B6D"/>
<path d="M121.67 18.1854C121.852 18.9463 122.443 18.8472 123.062 18.8471C122.574 19.2489 122.252 19.6283 122.701 20.2342C122.088 19.8572 121.666 20.0772 121.295 20.6119C121.398 19.9843 121.392 19.4502 120.589 19.2289C121.193 19.0829 121.555 18.7352 121.673 18.1858L121.67 18.1854Z" fill="#C7A587"/>
<path d="M115.57 13.6994C115.308 13.8233 115.045 13.9502 114.806 14.0644C114.691 13.6617 114.58 13.2692 114.472 12.8865C114.645 12.6651 114.852 12.4069 115.079 12.1164C115.313 12.4683 115.674 12.7544 116.216 12.6108C116.137 12.7749 116.055 12.9354 115.923 13.2067C116.648 13.2716 117.298 13.3296 117.948 13.3844C117.949 13.4227 117.947 13.4606 117.939 13.4976C117.783 13.5212 117.623 13.5698 117.468 13.5618C116.828 13.5242 116.184 13.4003 115.57 13.6994Z" fill="#BF9770"/>
<path d="M117.939 13.4976C117.944 13.4602 117.949 13.4227 117.948 13.3845C118.42 13.3839 118.857 13.458 119.274 13.0119C119.543 12.7207 119.774 13.2118 119.956 13.4519C119.886 13.6141 119.817 13.7763 119.751 13.9389C119.279 14.3143 119.27 14.313 118.886 13.6999C118.744 13.6588 118.607 13.6151 118.465 13.574C118.29 13.5506 118.115 13.521 117.943 13.4949L117.939 13.4976Z" fill="#C7A587"/>
<path d="M148.491 15.5704C148.472 15.7838 148.453 15.9972 148.437 16.211C148.413 16.3189 148.389 16.43 148.368 16.5383C148.299 16.5291 148.228 16.5133 148.159 16.5041C148.059 16.5575 147.956 16.6105 147.857 16.6639C147.804 16.6728 147.754 16.6692 147.705 16.6501C147.639 16.6698 147.572 16.6895 147.509 16.7096C147.422 16.8853 147.335 17.0579 147.251 17.234C147.197 17.2269 147.144 17.2198 147.088 17.2123C147.13 16.8972 147.288 16.5722 146.994 16.2917C146.625 15.9411 146.766 15.6073 147.04 15.2947C147.341 14.9538 147.729 14.8943 148.141 15.1555C148.288 15.2482 148.379 15.4285 148.494 15.5709L148.491 15.5704Z" fill="#C7A587"/>
<path d="M152.25 37.4037C152.277 37.1947 152.299 36.9817 152.327 36.7727C152.318 36.654 152.308 36.5352 152.299 36.4133C151.851 36.1791 151.4 35.9476 150.753 35.6074C151.244 35.4918 151.537 35.4038 151.836 35.358C152.704 35.2195 152.553 35.3708 152.637 34.4549C152.658 34.2228 152.651 33.987 152.778 33.7086C152.926 33.9601 153.067 34.2202 153.237 34.4555C153.267 34.4944 153.431 34.4338 153.535 34.4222C153.586 34.4226 153.639 34.4266 153.688 34.4426C153.663 35.1599 153.696 35.1993 154.369 35.1555C154.658 35.137 154.945 35.0926 155.402 35.0424C155.035 35.3745 154.817 35.6248 154.553 35.8087C154.173 36.0724 154.169 36.3386 154.426 36.6903C154.604 36.93 154.737 37.2048 154.89 37.4634C154.807 37.4935 154.72 37.5232 154.636 37.5533C154.324 37.4514 154.015 37.3531 153.703 37.2512C153.607 37.1528 153.512 37.0544 153.417 36.9559C153.339 37.0376 153.261 37.1193 153.186 37.2046C152.91 37.5012 152.634 37.7978 152.362 38.0949C152.309 38.0339 152.257 37.9698 152.204 37.9089C152.212 37.8051 152.219 37.7013 152.227 37.5975C152.235 37.5351 152.244 37.4727 152.252 37.4103L152.25 37.4037Z" fill="#C7A587"/>
<path d="M157.412 25.29C156.887 24.6581 156.864 24.5408 157.154 24.0428C157.314 23.899 157.47 23.7579 157.629 23.614L157.636 23.6086C157.698 23.5756 157.76 23.5457 157.822 23.5126C158.195 23.4893 158.519 23.5706 158.756 23.8975C159.16 24.4593 158.915 25.2172 158.25 25.3984C158.071 25.4476 157.872 25.4338 157.685 25.447C157.596 25.3939 157.504 25.3435 157.412 25.29Z" fill="#BF9770"/>
<path d="M153.692 34.44C153.643 34.4271 153.589 34.4231 153.538 34.4196C154.51 32.1583 155.482 29.9002 156.454 27.6389C156.5 27.699 156.546 27.7592 156.593 27.8193C155.681 29.9647 154.772 32.1106 153.857 34.2525C153.825 34.3245 153.749 34.3745 153.692 34.4369L153.692 34.44Z" fill="#9C7B6D"/>
<path d="M156.592 27.8223C156.546 27.7621 156.5 27.702 156.453 27.6419C156.772 26.8588 157.094 26.073 157.412 25.2899C157.504 25.3434 157.593 25.3934 157.685 25.4469C157.32 26.2397 156.956 27.0294 156.592 27.8223Z" fill="#876762"/>
<path d="M156.071 22.9017C155.672 22.5722 155.268 22.2517 154.88 21.9079C154.797 21.8334 154.782 21.6853 154.736 21.5713C155.192 21.9559 155.649 22.3374 156.105 22.722C156.097 22.7844 156.086 22.8432 156.074 22.9052L156.071 22.9017Z" fill="#876762"/>
<path d="M156.072 22.9015C156.08 22.8392 156.091 22.7803 156.102 22.7183C156.418 22.9635 156.72 23.2293 157.055 23.4453C157.214 23.549 157.436 23.5595 157.627 23.6104C157.467 23.7542 157.311 23.8985 157.152 24.0392C156.791 23.6578 156.43 23.2794 156.069 22.898L156.072 22.9015Z" fill="#9C7B6D"/>
<path d="M153.833 20.7841C153.926 20.8029 154.016 20.8213 154.11 20.8369C154.175 20.8964 154.241 20.9559 154.306 21.0155C154.351 21.0627 154.399 21.1104 154.444 21.1576C154.547 21.2413 154.651 21.3249 154.755 21.4055C154.748 21.4616 154.741 21.5147 154.736 21.5712C154.271 21.4934 153.942 21.259 153.831 20.7775L153.833 20.7841Z" fill="#876762"/>
<path d="M151.642 18.3111C151.997 18.2791 152.013 18.5669 152.089 18.7897C152.139 18.9393 152.159 19.0976 152.19 19.2509C152.181 19.3164 152.179 19.3827 152.173 19.4487C151.93 19.2638 151.694 19.2864 151.435 19.4329C151.179 19.5766 151.042 19.4853 151.028 19.1818C151.02 18.9745 150.971 18.771 150.938 18.5666C151.172 18.4835 151.404 18.3969 151.638 18.3138L151.642 18.3111Z" fill="#C7A587"/>
<path d="M152.173 19.4486C152.182 19.3831 152.184 19.3168 152.19 19.2509C152.741 19.7624 153.288 20.2766 153.839 20.7881C153.084 20.586 152.661 19.9772 152.173 19.4486Z" fill="#876762"/>
<path d="M151.642 18.3111C151.407 18.3941 151.176 18.4807 150.941 18.5638C150.589 18.2597 150.237 17.9588 149.882 17.6543C149.89 17.5951 149.901 17.5331 149.912 17.4742C150.132 17.6401 150.368 17.789 150.573 17.9719C150.885 18.2451 151.239 18.3431 151.641 18.3142L151.642 18.3111Z" fill="#876762"/>
<path d="M149.912 17.4743C149.904 17.5336 149.893 17.5956 149.882 17.6544C149.521 17.4381 149.098 17.2865 149 16.8035L149.912 17.4743Z" fill="#9C7B6D"/>
<path d="M148.364 16.5411C148.388 16.4332 148.413 16.3221 148.434 16.2138C148.624 16.4137 148.817 16.6141 149.008 16.811C148.794 16.7189 148.579 16.63 148.362 16.5375L148.364 16.5411Z" fill="#9C7B6D"/>
<path d="M106.601 13.2317C106.655 13.2103 106.705 13.1916 106.759 13.1702C106.786 13.2817 106.812 13.3963 106.835 13.5074C106.25 13.9439 106.059 13.9914 106.968 14.9983C106.78 14.9732 106.655 14.9565 106.529 14.9398C106.066 14.7088 105.604 14.8346 105.142 15.317C105.136 15.1447 105.109 15.0079 105.133 14.8808C105.209 14.4306 105.07 14.1358 104.591 14.0403C104.355 13.9929 104.347 13.8617 104.505 13.7018C104.678 13.6741 104.847 13.649 105.02 13.6212C105.141 13.5547 105.342 13.5053 105.363 13.4161C105.413 13.1878 105.382 12.9455 105.384 12.6187C105.523 12.7484 105.65 12.8225 105.715 12.9328C106 13.4279 105.993 13.4333 106.604 13.229L106.601 13.2317Z" fill="#C7A587"/>
<path d="M85.658 34.0848C86.0824 33.1712 85.9181 32.452 85.1652 31.927C85.7155 31.9562 86.1615 32.1072 86.4869 31.9689C86.8506 31.8143 87.1049 31.4008 87.4659 31.0439C87.3815 31.794 87.499 32.4115 88.5889 32.3393C88.1713 32.6447 87.7824 32.7847 87.6832 33.0386C87.5661 33.3396 87.6914 33.7368 87.7165 34.1242C87.6752 34.1292 87.5908 34.1668 87.5626 34.141C87.0216 33.7092 86.3873 33.6923 85.6595 34.0905L85.658 34.0848Z" fill="#D0D1D8"/>
<path d="M100.792 32.185C100.745 32.2824 100.691 32.3756 100.657 32.4757C100.529 32.828 100.43 33.1821 99.9121 32.8895C99.8292 32.8419 99.6083 33.0402 99.1994 33.2645C99.6657 32.6763 99.8055 32.2448 99.1545 31.8757C99.8374 32.2727 100.084 31.8644 100.256 31.4516C100.447 31.7191 100.619 31.9613 100.795 32.2055L100.794 32.1906L100.792 32.185Z" fill="#877284"/>
<path d="M30.9889 20.1914C31.7222 20.2587 32.2435 20.0065 32.5528 19.4349C32.7486 20.0639 33.1474 20.4397 33.7493 20.5622C33.1707 20.8468 32.8862 21.2046 33.3774 21.7498C33.0834 22.0162 32.5707 21.5495 32.4541 22.0899C32.4515 22.1028 32.2909 22.1061 32.2878 22.0948C32.1326 21.36 31.7637 21.7555 31.4325 21.9287C31.344 21.9735 31.2386 21.9895 30.9159 22.0816C31.6709 21.377 31.7593 20.7774 30.9853 20.1893L30.9889 20.1914Z" fill="#C7A587"/>
<path d="M33.501 24.7095C32.297 26.5191 31.0662 28.3086 29.8983 30.139C29.0809 31.4151 28.3515 32.7465 27.5845 34.0515C27.4767 33.9226 27.3688 33.7937 27.2609 33.6648C28.0669 32.4252 28.8604 31.1736 29.6843 29.9444C30.8878 28.1439 32.1092 26.3539 33.3214 24.5633C33.3837 24.6134 33.4423 24.6614 33.5046 24.7115L33.501 24.7095Z" fill="#877284"/>
<path d="M53.0824 23.7856C52.6705 23.0707 52.2323 23.1299 51.7156 23.5648C51.9754 22.968 52.5034 22.4391 51.6271 21.8784C52.3301 21.9426 52.8649 21.8577 52.803 21.0282C52.904 21.0862 52.9875 21.1246 52.9869 21.1338C52.7898 21.6806 53.766 21.39 53.5418 21.8591C53.2859 22.3912 53.7519 22.458 54.0804 22.7949C53.1871 22.5449 53.0157 23.006 53.0824 23.7856Z" fill="#877284"/>
<path d="M47.5296 25.7086C48.2911 26.873 49.045 28.0425 49.8143 29.2018C50.1133 29.6557 50.4356 30.0943 51.0835 30.0217L51.081 30.0011C50.7679 30.7395 50.9963 31.0333 51.8393 30.9723C51.8935 30.97 51.9511 31.0365 52.0051 31.0676C51.8403 31.3268 51.6754 31.586 51.5049 31.8467C51.5635 31.3399 51.2694 31.0515 50.8755 30.8108C50.5984 30.6421 49.7609 29.7163 49.5927 29.4428C49.098 28.6469 48.5722 27.8714 48.1101 27.0607C47.8688 26.64 47.732 26.1549 47.5451 25.6984L47.528 25.7029L47.5296 25.7086Z" fill="#877284"/>
<path d="M27.2589 33.6684C27.3667 33.7973 27.4746 33.9262 27.5824 34.0551C27.93 34.5082 27.5561 34.8626 27.4227 35.2498C26.6407 35.3108 26.1281 35.0068 25.8849 34.3378C26.0656 34.126 26.2462 33.9141 26.4305 33.7043C26.7037 33.689 26.9769 33.6738 27.2501 33.6586L27.2645 33.6669L27.2589 33.6684Z" fill="#C7A587"/>
<path d="M24.4601 25.834C24.1224 25.6209 23.781 25.4056 23.4468 25.1946C24.2108 25.0212 24.0968 24.4058 23.8702 23.7113C24.4355 24.079 24.8803 24.3728 25.2803 24.636C25.1276 25.0648 24.9598 25.528 24.7941 25.9875C24.6797 25.9362 24.5689 25.8869 24.4545 25.8355L24.4601 25.834Z" fill="#B08A96"/>
<path d="M35.5899 21.8969C37.0075 20.8125 38.4272 19.7246 39.8448 18.6402C39.9069 18.7237 39.9675 18.8015 40.0296 18.885C38.5676 19.963 37.1092 21.0431 35.6472 22.1211C35.6274 22.0476 35.6097 21.9704 35.5863 21.8948L35.5899 21.8969Z" fill="#877284"/>
<path d="M42.2971 18.1836C41.5447 18.0719 41.13 18.0824 40.6845 18.2952C40.9134 17.9006 41.179 17.6418 41.1993 17.3666C41.2349 16.8083 41.5957 16.8243 41.9503 16.851C42.3328 16.8795 42.5093 17.1386 42.4957 17.5182C42.4911 17.6256 42.4865 17.7329 42.4819 17.8403C42.421 17.9535 42.358 18.0704 42.3007 18.1857L42.2971 18.1836Z" fill="#C7A587"/>
<path d="M66.3344 25.2284C66.0972 25.7283 65.8201 26.1478 65.1606 25.8263C65.0673 25.6723 64.9777 25.5204 64.8865 25.3628C65.0005 24.4622 65.3012 24.3002 65.9848 24.7789C66.1008 24.9269 66.2169 25.0748 66.3329 25.2228L66.3344 25.2284Z" fill="#C7A587"/>
<path d="M43.2119 19.2159C44.1946 20.7033 45.1809 22.1929 46.1636 23.6803L46.1863 23.6743C46.0637 23.6039 45.9002 23.5626 45.8263 23.458C44.9635 22.178 44.1142 20.8915 43.2727 19.5999C43.2096 19.5015 43.2397 19.3418 43.2253 19.2092L43.2062 19.2174L43.2119 19.2159Z" fill="#877284"/>
<path d="M51.505 31.8466C51.6699 31.5874 51.8347 31.3282 52.0053 31.0675C52.1582 31.1601 52.3892 31.2259 52.4393 31.355C52.5439 31.6303 52.6085 31.9496 52.5727 32.2351C52.5556 32.364 52.2661 32.5564 52.1003 32.5521C51.6868 32.5441 51.4519 32.2944 51.505 31.8466Z" fill="#C7A587"/>
<path d="M24.4601 25.8343C24.5745 25.8856 24.6853 25.9349 24.7997 25.9863C25.055 26.9794 25.3103 27.9726 25.5635 28.9693C25.0401 28.5873 25.024 28.0186 24.8797 27.5052C24.7247 26.9523 24.5981 26.3918 24.4601 25.8343Z" fill="#745758"/>
<path d="M51.5753 30.0603C51.7133 29.9052 51.8243 29.6725 51.9955 29.6177C52.8809 29.318 53.7799 29.0693 54.6729 28.7979C54.6999 28.8756 54.7248 28.9568 54.7519 29.0345C53.6908 29.372 52.6333 29.7115 51.5722 30.0489L51.5732 30.0638L51.5753 30.0603Z" fill="#877284"/>
<path d="M33.5009 24.7094C33.4387 24.6593 33.38 24.6113 33.3178 24.5611C33.089 24.0663 33.2024 23.7217 33.658 23.5275C33.7512 23.5906 33.8459 23.6593 33.9391 23.7224C34.0712 24.2734 33.9252 24.6024 33.5009 24.7094Z" fill="#C7A587"/>
<path d="M57.849 27.8148C58.8166 27.481 59.7842 27.1473 60.7518 26.8135C60.7319 26.8643 60.7069 26.9074 60.6727 26.9498C59.8652 27.629 58.8312 27.6712 57.8768 27.9408C57.8682 27.8976 57.8539 27.8559 57.8433 27.8163L57.849 27.8148Z" fill="#745758"/>
<path d="M64.8901 25.3648C64.9834 25.5188 65.0731 25.6707 65.1643 25.8283C64.3615 26.0272 63.5644 26.2245 62.7616 26.4234L62.7662 26.4404C63.0392 26.2433 63.2907 26.0004 63.5924 25.8532C64.0074 25.6516 64.4572 25.5226 64.8937 25.3668L64.8901 25.3648Z" fill="#877284"/>
<path d="M33.9427 23.7246C33.8495 23.6615 33.7548 23.5928 33.6616 23.5297C34.3043 22.9854 34.947 22.4411 35.5934 21.8989C35.6132 21.9725 35.6309 22.0496 35.6543 22.1252C35.085 22.6591 34.5156 23.1929 33.9463 23.7267L33.9427 23.7246Z" fill="#876762"/>
<path d="M27.2429 33.6545C26.9696 33.6698 26.6964 33.685 26.4232 33.7002C26.2908 33.0503 26.1584 32.4004 26.024 31.754C26.0638 31.7434 26.1036 31.7328 26.1398 31.7201C26.2652 32.0839 26.3404 32.4762 26.5295 32.8048C26.7062 33.1215 26.9989 33.3709 27.2393 33.6525L27.2429 33.6545Z" fill="#745758"/>
<path d="M60.6783 26.9486C60.7126 26.9062 60.734 26.861 60.7574 26.8123C61.4196 26.657 62.0208 26.1511 62.7683 26.437L62.7637 26.42C62.0705 26.5957 61.3773 26.7714 60.6804 26.945L60.6783 26.9486Z" fill="#877284"/>
<path d="M66.3345 25.2284C66.2185 25.0804 66.1024 24.9325 65.9864 24.7845C66.3304 24.7717 66.68 24.7573 67.024 24.7444C67.3679 24.7316 67.7083 24.7166 68.0501 24.7074L68.0471 24.696C67.4767 24.8754 66.9064 25.0547 66.3324 25.232L66.3345 25.2284Z" fill="#877284"/>
<path d="M16.7273 1.69303C16.7408 1.90166 16.7958 2.07195 16.735 2.15182C16.6805 2.22093 16.461 2.24308 16.3765 2.18979C16.3029 2.14271 16.2656 1.92524 16.3171 1.84481C16.365 1.76232 16.5427 1.75437 16.7273 1.69303Z" fill="#877284"/>
<path d="M46.7114 24.4926C46.9853 24.8987 47.2556 25.3026 47.5295 25.7087L47.5466 25.7041C47.0432 25.4532 46.6994 25.0931 46.7341 24.4866L46.715 24.4947L46.7114 24.4926Z" fill="#877284"/>
<path d="M17.1693 23.2054C17.2049 23.4506 17.2857 23.6261 17.2276 23.6932C17.1388 23.8048 16.963 23.8425 16.8264 23.9123C16.8084 23.7776 16.7409 23.6288 16.7833 23.5145C16.823 23.4129 16.974 23.3514 17.1714 23.2018L17.1693 23.2054Z" fill="#B08A96"/>
<path d="M58.7924 13.1008C59.0461 13.0695 59.2127 12.9978 59.2858 13.0542C59.3625 13.1126 59.3704 13.2893 59.3632 13.4095C59.3594 13.4408 59.1593 13.5124 59.0944 13.4751C58.997 13.4192 58.9413 13.2915 58.7888 13.0987L58.7924 13.1008Z" fill="#745758"/>
<path d="M55.9527 28.457C56.2631 28.3197 56.572 28.1767 56.8825 28.0394C56.7167 28.4989 56.3447 28.5435 55.9918 28.6134C55.978 28.5625 55.9643 28.5115 55.9527 28.457Z" fill="#745758"/>
<path d="M14.4717 8.41295C14.2108 8.44005 14.0738 8.48568 13.964 8.45128C13.8943 8.43043 13.8661 8.2803 13.8174 8.19018C13.9308 8.13571 14.0552 8.02067 14.1512 8.03754C14.2435 8.05233 14.3048 8.21186 14.4717 8.41295Z" fill="#B08A96"/>
<path d="M46.7306 24.4844C46.3724 24.3313 46.0608 24.1475 46.1863 23.6744L46.1636 23.6805C46.3431 23.951 46.5262 24.2236 46.7114 24.4926L46.7306 24.4844Z" fill="#877284"/>
<path d="M55.9881 28.6112C55.9027 28.6674 55.8263 28.7575 55.7359 28.7725C55.6284 28.792 55.5155 28.7463 55.4046 28.7304C55.4845 28.6424 55.5547 28.5297 55.6552 28.4726C55.7344 28.4272 55.8556 28.4586 55.9526 28.457C55.9607 28.5094 55.9744 28.5603 55.9917 28.6133L55.9881 28.6112Z" fill="#745758"/>
<path d="M57.8834 27.9392C57.8169 27.9539 57.7504 27.9685 57.6896 27.9817C57.7418 27.9251 57.7976 27.8706 57.8518 27.8105C57.8625 27.8503 57.8748 27.8958 57.8855 27.9356L57.8834 27.9392Z" fill="#745758"/>
<path d="M26.0618 31.4246C26.0914 31.5234 26.1154 31.6237 26.145 31.7224C26.105 31.7331 26.0686 31.7458 26.0286 31.7565C26.0047 31.6562 25.9771 31.5539 25.9532 31.4536C25.9875 31.4444 26.0239 31.4317 26.0618 31.4246Z" fill="#745758"/>
<path d="M25.9675 31.1314C25.9972 31.2301 26.0325 31.3274 26.0622 31.4261C26.0279 31.4353 25.9915 31.448 25.9536 31.4551C25.9354 31.3533 25.9171 31.2515 25.901 31.1461L25.9639 31.1293L25.9675 31.1314Z" fill="#745758"/>
<path d="M25.9048 31.1498L25.8501 30.8444L25.8729 30.8383C25.9026 30.9371 25.938 31.0343 25.9697 31.1294L25.9069 31.1462L25.9048 31.1498Z" fill="#745758"/>
<path d="M25.8504 30.846C25.8114 30.7467 25.7739 30.6531 25.7385 30.5558L25.8185 30.5345C25.8368 30.6363 25.855 30.7381 25.8732 30.8399L25.8504 30.846Z" fill="#745758"/>
<path d="M25.7529 30.2334C25.7768 30.3337 25.7987 30.4375 25.819 30.5357L25.739 30.5571C25.7093 30.4583 25.6796 30.3596 25.6464 30.2587L25.7492 30.2313L25.7529 30.2334Z" fill="#745758"/>
<path d="M25.6442 30.2637C25.6616 30.192 25.6812 30.1167 25.6986 30.045C25.7155 30.1076 25.7302 30.1738 25.7471 30.2363L25.6442 30.2637Z" fill="#745758"/>
<path d="M81.2486 32.6577C81.2121 32.717 81.1742 32.7771 81.1385 32.8379C80.9425 33.1804 80.7037 33.2934 80.3608 33.2028C80.0057 33.1076 79.8012 32.8395 79.8107 32.4784C79.8187 32.2042 80.0109 31.9709 80.2966 31.8863C80.602 31.796 80.9243 31.9502 81.1138 32.2786C81.1205 32.29 81.1236 32.3054 81.1274 32.3186C81.1675 32.4311 81.2076 32.5437 81.2463 32.6571L81.2486 32.6577Z" fill="#BF9770"/>
<path d="M83.7609 13.7144C83.7619 13.6565 83.7569 13.5982 83.7684 13.5419C83.8127 13.3041 83.7285 13.1615 83.4855 13.1049C83.3486 13.0731 83.2204 13.0133 83.0536 12.9528C83.611 12.7859 83.9779 12.5339 83.7851 11.9053C83.8059 11.9182 83.8345 11.9246 83.8467 11.9424C84.3098 12.6386 84.2265 12.5242 85.0236 12.3584C85.0275 12.5473 84.8625 12.6158 84.778 12.7277C84.5581 13.019 84.5505 13.0158 84.7638 13.319C84.8295 13.4129 84.903 13.5005 84.9526 13.6459C84.8174 13.5939 84.6776 13.5504 84.5469 13.4863C84.3184 13.3754 84.161 13.4338 84.0605 13.6638C83.9614 13.6809 83.8623 13.698 83.7624 13.7136L83.7609 13.7144Z" fill="#C7A587"/>
<path d="M84.5948 18.1787C84.5963 18.1415 84.5955 18.1037 84.597 18.0666C84.6622 18.1264 84.7267 18.1886 84.7919 18.2485C84.9405 18.517 85.1604 18.6207 85.4514 18.5597C85.5489 18.5398 85.6466 18.5235 85.7508 18.5054C85.7524 18.5446 85.7624 18.5752 85.752 18.5869C85.6129 18.7533 85.3881 18.9003 85.3546 19.084C85.3233 19.255 85.493 19.4629 85.5916 19.6966C85.3467 19.6201 85.1197 19.472 84.93 19.5108C84.7519 19.5467 84.6145 19.779 84.4587 19.9263C84.469 19.8152 84.4786 19.7026 84.489 19.5914C84.5116 19.326 84.3818 19.1773 84.0995 19.1453C84.0824 19.0959 84.0654 19.0464 84.0469 18.9979C84.0829 18.8815 84.1173 18.7622 84.2754 18.7646C84.5077 18.6967 84.6144 18.5007 84.5954 18.1764L84.5948 18.1787Z" fill="#BF9770"/>
<path d="M75.8892 19.3718C76.009 19.3409 76.1293 19.281 76.2468 19.2858C76.4832 19.2946 76.6154 19.2355 76.6462 18.971C76.6544 18.909 76.6012 18.6414 76.8556 18.7144C76.897 18.7861 76.9375 18.8564 76.9775 18.9289C77.0241 18.9402 77.0708 18.9515 77.1189 18.962C77.1194 19.1184 77.2036 19.1616 77.345 19.1316C77.4929 19.0997 77.6408 19.0679 77.8229 19.0621C77.4615 19.4295 77.3061 19.806 77.6246 20.2816C77.4665 20.1932 77.3072 20.1093 77.154 20.0161C77.0348 19.9454 76.9678 19.9917 76.9172 20.0993C76.847 20.1666 76.7769 20.2338 76.7082 20.3003C76.6434 20.3568 76.5799 20.4126 76.4799 20.5009C76.4849 20.2877 76.4609 20.097 76.5013 19.9188C76.5509 19.6933 76.4607 19.6001 76.2648 19.5488C76.1562 19.5197 76.0501 19.4816 75.9419 19.4465C75.927 19.4207 75.9101 19.398 75.8952 19.3722L75.8892 19.3718Z" fill="#BF9770"/>
<path d="M83.513 19.0366C83.5127 19.0559 83.5216 19.068 83.5411 19.072L83.5587 19.1058L83.5812 19.1349C82.4297 19.2166 81.2782 19.2983 80.1251 19.3772C80.077 19.38 80.0263 19.3386 79.9769 19.3193C80.1536 19.2842 80.3308 19.2335 80.5094 19.2184C80.8612 19.1854 81.2165 19.1715 81.569 19.1496C82.2165 19.1122 82.864 19.0748 83.5138 19.038L83.513 19.0366Z" fill="#876762"/>
<path d="M77.6772 16.422C77.707 16.4603 77.7359 16.4971 77.7656 16.5354C77.5487 17.3451 77.3332 18.1539 77.1154 18.9621C77.0687 18.9508 77.022 18.9396 76.9746 18.9268C76.9911 18.8561 77.0076 18.7854 77.0241 18.7147C77.1168 18.405 77.2146 18.0943 77.3019 17.7819C77.4305 17.3292 77.5523 16.8746 77.6778 16.4197L77.6772 16.422Z" fill="#745758"/>
<path d="M79.9378 19.2482C79.9576 19.2693 79.9731 19.2928 79.9837 19.3211C79.6498 19.5044 79.2848 19.4284 78.9316 19.4392C78.9385 19.418 78.9439 19.3976 78.9522 19.3756C79.2812 19.3329 79.6102 19.2901 79.9392 19.2474L79.9378 19.2482Z" fill="#876762"/>
<path d="M78.9292 19.4385C78.8319 19.4488 78.7361 19.4582 78.5799 19.4758C78.7148 19.3023 78.8297 19.3258 78.9485 19.3758C78.9407 19.3955 78.9338 19.4167 78.9292 19.4385Z" fill="#876762"/>
<path d="M20.7523 45.9785C20.8116 46.015 20.8718 46.0529 20.9325 46.0886C21.2751 46.2846 21.3881 46.5233 21.2974 46.8663C21.2023 47.2213 20.9342 47.4258 20.5731 47.4164C20.2989 47.4083 20.0656 47.2161 19.9809 46.9305C19.8907 46.6251 20.0449 46.3028 20.3732 46.1132C20.3847 46.1066 20.4001 46.1034 20.4132 46.0997C20.5258 46.0596 20.6383 46.0194 20.7517 45.9807L20.7523 45.9785Z" fill="#BF9770"/>
<path d="M1.8091 43.466C1.75118 43.465 1.69288 43.47 1.63656 43.4586C1.39877 43.4142 1.25621 43.4985 1.19959 43.7414C1.16775 43.8784 1.10795 44.0066 1.04749 44.1734C0.880516 43.6159 0.62855 43.2491 -1.77622e-05 43.4418C0.0128273 43.421 0.019271 43.3925 0.037083 43.3803C0.733242 42.9172 0.618818 43.0004 0.453035 42.2033C0.641948 42.1994 0.710451 42.3644 0.822337 42.4489C1.11369 42.6688 1.11044 42.6764 1.41363 42.4632C1.5076 42.3974 1.59516 42.3239 1.74054 42.2744C1.68857 42.4096 1.64504 42.5494 1.58094 42.6801C1.47003 42.9085 1.52844 43.066 1.75848 43.1664C1.77555 43.2655 1.79263 43.3646 1.80827 43.4646L1.8091 43.466Z" fill="#C7A587"/>
<path d="M7.46642 51.3378C7.4355 51.218 7.37561 51.0977 7.38043 50.9802C7.38923 50.7438 7.33012 50.6116 7.06568 50.5808C7.00363 50.5726 6.73608 50.6258 6.80908 50.3714C6.88077 50.33 6.95103 50.2895 7.02355 50.2495C7.03484 50.2028 7.04613 50.1562 7.05659 50.1081C7.21308 50.1076 7.25624 50.0234 7.22624 49.882C7.19437 49.7341 7.1625 49.5862 7.15676 49.4041C7.52411 49.7655 7.90061 49.9209 8.37624 49.6024C8.28782 49.7605 8.20392 49.9198 8.11075 50.073C8.04002 50.1922 8.08632 50.2592 8.19395 50.3098C8.26121 50.3799 8.32847 50.4501 8.3949 50.5188C8.45146 50.5836 8.50719 50.647 8.59553 50.7471C8.38234 50.7421 8.19167 50.7661 8.01344 50.7256C7.78794 50.6761 7.6947 50.7663 7.64341 50.9622C7.61432 51.0708 7.57619 51.1769 7.54114 51.2851C7.51533 51.3 7.49262 51.3169 7.46681 51.3318L7.46642 51.3378Z" fill="#BF9770"/>
<path d="M3.01948 48.2845C3.16462 48.367 3.30894 48.4481 3.45409 48.5307C3.52007 48.592 3.58463 48.6541 3.65145 48.7169C3.72883 48.7085 3.81532 48.7159 3.88398 48.6859C4.01044 48.63 4.12508 48.5505 4.32725 48.4337C4.25682 48.6197 4.21764 48.7207 4.17845 48.8217C4.05561 49.1354 4.0677 49.1762 4.35468 49.3356C4.44217 49.3845 4.537 49.4196 4.63001 49.4615C4.59174 49.4912 4.55491 49.5201 4.51664 49.5499C4.1194 49.4733 3.85417 49.6309 3.72092 50.0226C3.70896 50.0582 3.67356 50.0863 3.65029 50.1189L3.66017 50.1227C3.58573 50.007 3.51189 49.8891 3.43744 49.7734C3.41786 49.756 3.39298 49.7493 3.36567 49.7517C3.45553 49.5928 3.36418 49.5538 3.22716 49.5449C3.18833 49.5406 3.1495 49.5362 3.1121 49.5311C3.04702 49.5342 2.98419 49.538 2.91911 49.5412C2.85402 49.5443 2.78977 49.5489 2.72468 49.5521L2.73218 49.5286C2.73961 49.4918 2.74848 49.4542 2.75591 49.4174C2.87244 49.3444 2.99039 49.2706 3.10692 49.1976C3.13515 49.1736 3.16339 49.1497 3.19162 49.1257C3.13554 48.8465 3.07864 48.5658 3.02257 48.2866L3.01948 48.2845Z" fill="#BF9770"/>
<path d="M4.51668 49.5498C4.55495 49.5201 4.59178 49.4911 4.63005 49.4614C5.43972 49.6783 6.24857 49.8939 7.0568 50.1116C7.04551 50.1583 7.03422 50.205 7.02149 50.2525C6.95078 50.2359 6.88006 50.2194 6.80934 50.2029C6.49966 50.1102 6.18893 50.0124 5.8766 49.9251C5.42382 49.7965 4.96923 49.6747 4.51441 49.5492L4.51668 49.5498Z" fill="#745758"/>
</g>
</svg>
