<svg width="171" height="20" viewBox="0 0 171 20" fill="none" xmlns="http://www.w3.org/2000/svg">
<path d="M166.192 19.006C165.83 19.006 165.449 18.9558 165.047 18.8554C164.645 18.755 164.284 18.5944 163.963 18.3735C163.661 18.1325 163.461 17.8112 163.36 17.4096C163.34 17.3494 163.33 17.259 163.33 17.1385C163.33 16.8574 163.39 16.5462 163.511 16.2048C163.651 15.8634 163.822 15.6225 164.023 15.4819C164.103 15.4417 164.163 15.4417 164.204 15.4819C164.264 15.5221 164.274 15.5622 164.234 15.6024C164.214 15.6626 164.183 15.7429 164.143 15.8433C164.103 15.9237 164.073 16.014 164.053 16.1144C163.993 16.6365 164.103 17.0984 164.384 17.5C164.505 17.6606 164.645 17.8112 164.806 17.9518C164.987 18.0923 165.157 18.2128 165.318 18.3132C165.459 18.3936 165.629 18.4538 165.83 18.494C166.031 18.514 166.232 18.5241 166.432 18.5241C166.754 18.5241 167.065 18.4839 167.366 18.4036C167.667 18.3233 167.888 18.1927 168.029 18.012C168.29 17.6907 168.42 17.3293 168.42 16.9277C168.42 16.6265 168.34 16.3052 168.179 15.9638C168.019 15.6225 167.768 15.261 167.426 14.8795C167.206 14.6385 166.995 14.3775 166.794 14.0964C166.593 13.8152 166.463 13.514 166.402 13.1927C166.382 13.1325 166.362 13.0723 166.342 13.012C166.342 12.9518 166.342 12.8915 166.342 12.8313C166.081 13.2128 165.81 13.5743 165.529 13.9156C165.268 14.2369 165.037 14.518 164.836 14.759C164.756 14.8795 164.685 14.9397 164.625 14.9397C164.585 14.9397 164.565 14.8996 164.565 14.8193C164.565 14.6385 164.645 14.4478 164.806 14.247C164.967 14.0662 165.147 13.8454 165.348 13.5843C165.549 13.3032 165.71 13.0823 165.83 12.9217C166.171 12.4197 166.422 12.0281 166.583 11.747C166.764 11.4458 166.955 11.1747 167.155 10.9337C167.376 10.6727 167.647 10.4618 167.969 10.3012C168.31 10.1405 168.661 10.0602 169.023 10.0602C169.445 10.0602 169.826 10.1305 170.167 10.2711C170.529 10.3915 170.72 10.7128 170.74 11.2349C170.74 11.4759 170.69 11.7269 170.589 11.9879C170.509 12.2289 170.418 12.4598 170.318 12.6807C170.258 12.8012 170.167 12.8915 170.047 12.9518C169.947 12.9919 169.896 12.9719 169.896 12.8915C169.896 12.8112 169.906 12.7209 169.926 12.6205C169.947 12.5201 169.957 12.4297 169.957 12.3494C169.957 12.008 169.896 11.7068 169.776 11.4458C169.675 11.1646 169.525 10.9638 169.324 10.8433C169.123 10.7028 168.912 10.6325 168.692 10.6325C168.37 10.6325 168.059 10.763 167.758 11.0241C167.457 11.265 167.306 11.5863 167.306 11.9879C167.306 12.0281 167.306 12.0783 167.306 12.1385C167.306 12.1988 167.316 12.249 167.336 12.2891C167.416 12.6104 167.657 12.9719 168.059 13.3735C168.461 13.7751 168.772 14.1265 168.993 14.4277C169.374 14.9498 169.565 15.4819 169.565 16.0241C169.565 16.5662 169.404 17.0682 169.083 17.5301C168.782 17.9719 168.37 18.3233 167.848 18.5843C167.346 18.8654 166.794 19.006 166.192 19.006Z" fill="white"/>
<path d="M158.6 18.765C157.777 18.765 157.205 18.6044 156.883 18.2831C156.562 17.9618 156.401 17.5703 156.401 17.1084C156.401 16.5261 156.552 15.9036 156.853 15.2409C157.174 14.5783 157.476 14.016 157.757 13.5542C158.078 13.0723 158.51 12.5703 159.052 12.0482C159.594 11.5261 160.187 11.0843 160.829 10.7229C161.472 10.3614 162.094 10.1807 162.697 10.1807C163.219 10.1807 163.58 10.3112 163.781 10.5723C163.982 10.8132 164.082 11.1044 164.082 11.4458C164.082 12.0682 163.891 12.5803 163.51 12.9819C163.148 13.3835 162.697 13.7148 162.154 13.9759C161.612 14.2168 161.09 14.4176 160.588 14.5783C160.287 14.6586 159.936 14.7389 159.534 14.8193C159.132 14.8996 158.751 14.9397 158.389 14.9397C158.249 15.3012 158.138 15.6526 158.058 15.994C157.978 16.3353 157.938 16.6466 157.938 16.9277C157.938 17.2691 158.018 17.5502 158.178 17.7711C158.359 17.9919 158.65 18.1024 159.052 18.1024C159.213 18.1024 159.403 18.0823 159.624 18.0421C159.845 18.002 160.086 17.9417 160.347 17.8614C160.95 17.6606 161.542 17.3393 162.124 16.8976C162.707 16.4558 163.239 15.9839 163.721 15.4819C164.223 14.9598 164.604 14.5281 164.865 14.1867C164.925 14.247 164.956 14.3172 164.956 14.3976C164.956 14.498 164.885 14.6586 164.745 14.8795C164.343 15.4417 163.821 16.0241 163.178 16.6265C162.536 17.2289 161.823 17.7409 161.04 18.1626C160.257 18.5642 159.444 18.765 158.6 18.765ZM158.63 14.3373C158.891 14.3574 159.182 14.3574 159.504 14.3373C159.845 14.2972 160.176 14.2269 160.498 14.1265C161.321 13.8855 161.913 13.504 162.275 12.9819C162.656 12.4397 162.847 11.9578 162.847 11.5361C162.847 11.2952 162.797 11.0943 162.697 10.9337C162.596 10.7731 162.436 10.6927 162.215 10.6927C161.632 10.6927 161.11 10.9136 160.648 11.3554C160.187 11.7771 159.785 12.269 159.444 12.8313C159.102 13.3935 158.831 13.8956 158.63 14.3373Z" fill="white"/>
<path d="M142.916 18.9759C142.835 18.9759 142.835 18.8855 142.916 18.7048C143.016 18.5241 143.107 18.3233 143.187 18.1024C143.287 17.8815 143.388 17.6405 143.488 17.3795C143.689 16.8976 143.91 16.3554 144.151 15.753C144.392 15.1506 144.623 14.5682 144.843 14.006C145.064 13.4237 145.255 12.9317 145.416 12.5301C145.596 12.1084 145.717 11.8373 145.777 11.7168C145.496 12.018 145.155 12.3996 144.753 12.8614C144.372 13.3032 144.01 13.7349 143.669 14.1566C143.327 14.5783 143.066 14.9096 142.886 15.1506C142.825 15.2309 142.775 15.2711 142.735 15.2711C142.695 15.2711 142.675 15.2209 142.675 15.1205C142.675 14.9598 142.725 14.8092 142.825 14.6686C143.207 14.1867 143.629 13.6445 144.09 13.0421C144.572 12.4397 145.004 11.8875 145.386 11.3855C145.767 10.8634 146.008 10.5221 146.109 10.3614C146.329 10.3213 146.651 10.261 147.072 10.1807C147.514 10.1004 147.815 9.98993 147.976 9.84936C148.036 9.78912 148.096 9.759 148.157 9.759C148.197 9.759 148.217 9.79916 148.217 9.87949C148.237 9.93973 148.217 10.01 148.157 10.0903C148.036 10.2309 147.825 10.5622 147.524 11.0843C147.243 11.5863 146.932 12.1486 146.59 12.7711C146.269 13.3935 145.968 13.9558 145.687 14.4578C146.008 14.0763 146.319 13.7148 146.621 13.3735C146.942 13.0321 147.163 12.7911 147.283 12.6506C147.524 12.4096 147.856 12.1084 148.277 11.747C148.699 11.3855 149.141 11.0542 149.603 10.753C150.064 10.4518 150.466 10.2811 150.807 10.2409C150.888 10.2209 150.958 10.2108 151.018 10.2108C151.078 10.2108 151.139 10.2108 151.199 10.2108C151.58 10.2108 151.771 10.3514 151.771 10.6325C151.771 10.753 151.741 10.8935 151.681 11.0542C151.621 11.2148 151.54 11.3755 151.44 11.5361C151.319 11.7771 151.119 12.1586 150.837 12.6807C150.556 13.1827 150.305 13.6445 150.084 14.0662L151.5 12.6506C151.741 12.4096 152.072 12.1084 152.494 11.747C152.916 11.3855 153.358 11.0542 153.819 10.753C154.281 10.4518 154.683 10.2811 155.024 10.2409C155.105 10.2209 155.175 10.2108 155.235 10.2108C155.315 10.2108 155.376 10.2108 155.416 10.2108C155.858 10.2108 156.078 10.3715 156.078 10.6927C156.078 10.9337 155.948 11.255 155.687 11.6566C155.546 11.8775 155.325 12.249 155.024 12.7711C154.723 13.2931 154.412 13.8654 154.09 14.4879C153.789 15.0903 153.528 15.6526 153.307 16.1747C153.086 16.6968 152.976 17.0783 152.976 17.3193C152.976 17.6004 153.117 17.7409 153.398 17.7409C153.659 17.7409 153.99 17.5903 154.392 17.2891C154.813 16.9678 155.235 16.5863 155.657 16.1446C156.099 15.7028 156.48 15.2811 156.801 14.8795C156.942 14.7188 157.072 14.5582 157.193 14.3976C157.333 14.2168 157.414 14.1164 157.434 14.0964C157.474 14.1365 157.494 14.2068 157.494 14.3072C157.494 14.4478 157.444 14.5883 157.343 14.7289C157.263 14.8494 157.183 14.9598 157.103 15.0602C156.721 15.5622 156.279 16.0843 155.777 16.6265C155.295 17.1686 154.763 17.6305 154.181 18.012C153.599 18.3735 152.976 18.5843 152.313 18.6446C152.113 18.6646 151.912 18.6245 151.711 18.5241C151.51 18.4237 151.41 18.263 151.41 18.0421C151.41 17.761 151.48 17.4297 151.621 17.0482C151.781 16.6666 151.952 16.2851 152.133 15.9036C152.333 15.5221 152.484 15.2108 152.584 14.9699C152.946 14.267 153.277 13.6044 153.578 12.9819C153.88 12.3594 154.09 11.9176 154.211 11.6566C154.271 11.5361 154.301 11.4357 154.301 11.3554C154.301 11.2148 154.191 11.2048 153.97 11.3253C153.749 11.4458 153.478 11.6265 153.157 11.8674C152.856 12.1084 152.574 12.3494 152.313 12.5903C152.052 12.8112 151.882 12.9618 151.801 13.0421C151.46 13.3835 151.048 13.8454 150.566 14.4277C150.105 15.01 149.673 15.6225 149.271 16.265C148.87 16.8875 148.588 17.4699 148.428 18.012C148.227 18.1927 148.036 18.2831 147.856 18.2831C147.715 18.2831 147.594 18.2329 147.494 18.1325C147.414 18.0321 147.374 17.9116 147.374 17.7711C147.374 17.3694 147.494 16.8976 147.735 16.3554C147.996 15.7931 148.207 15.3313 148.368 14.9699C148.729 14.267 149.06 13.6044 149.362 12.9819C149.663 12.3594 149.874 11.9176 149.994 11.6566C150.054 11.5361 150.084 11.4357 150.084 11.3554C150.084 11.2148 149.974 11.2048 149.753 11.3253C149.532 11.4458 149.261 11.6265 148.94 11.8674C148.639 12.1084 148.358 12.3494 148.097 12.5903C147.835 12.8112 147.665 12.9618 147.584 13.0421C147.103 13.5441 146.651 14.0562 146.229 14.5783C145.827 15.1004 145.486 15.6626 145.205 16.265C145.044 16.6265 144.874 17.0281 144.693 17.4699C144.512 17.9116 144.362 18.2831 144.241 18.5843C143.98 18.6044 143.719 18.6747 143.458 18.7952C143.197 18.9156 143.016 18.9759 142.916 18.9759Z" fill="white"/>
<path d="M137.964 18.6144C137.763 18.6144 137.593 18.5743 137.452 18.4939C137.332 18.4136 137.271 18.263 137.271 18.0421C137.271 17.761 137.342 17.4297 137.482 17.0481C137.643 16.6666 137.814 16.2851 137.994 15.9036C138.195 15.522 138.346 15.2108 138.446 14.9698C138.587 14.6887 138.757 14.3273 138.958 13.8855C139.179 13.4236 139.38 12.9919 139.561 12.5903C139.761 12.1686 139.902 11.8775 139.982 11.7168C139.701 12.018 139.36 12.3995 138.958 12.8614C138.577 13.3032 138.215 13.7349 137.874 14.1566C137.533 14.5783 137.271 14.9096 137.091 15.1506C137.03 15.2309 136.98 15.271 136.94 15.271C136.9 15.271 136.88 15.2208 136.88 15.1204C136.88 14.9598 136.93 14.8092 137.03 14.6686C137.412 14.1867 137.834 13.6445 138.296 13.0421C138.777 12.4397 139.209 11.8875 139.591 11.3855C139.972 10.8634 140.213 10.522 140.314 10.3614C140.535 10.3212 140.856 10.261 141.277 10.1807C141.719 10.1003 142.02 9.98991 142.181 9.84935C142.241 9.7891 142.302 9.75898 142.362 9.75898C142.402 9.75898 142.422 9.79915 142.422 9.87947C142.442 9.93971 142.422 10.01 142.362 10.0903C142.241 10.2309 142.03 10.5722 141.729 11.1144C141.428 11.6566 141.107 12.259 140.765 12.9216C140.444 13.5642 140.143 14.1465 139.862 14.6686C139.581 15.2108 139.34 15.7329 139.139 16.2349C138.938 16.7369 138.838 17.0983 138.838 17.3192C138.838 17.6004 138.978 17.7409 139.259 17.7409C139.52 17.7409 139.852 17.5803 140.253 17.259C140.675 16.9377 141.097 16.5562 141.518 16.1144C141.94 15.6526 142.312 15.2309 142.633 14.8493C142.733 14.7289 142.854 14.5883 142.994 14.4277C143.155 14.2469 143.255 14.1365 143.296 14.0963C143.336 14.1365 143.356 14.2068 143.356 14.3072C143.336 14.4477 143.286 14.5883 143.205 14.7289C143.125 14.8493 143.045 14.9598 142.964 15.0602C142.543 15.5823 142.081 16.1245 141.579 16.6867C141.077 17.2289 140.524 17.6907 139.922 18.0722C139.32 18.4337 138.667 18.6144 137.964 18.6144Z" fill="white"/>
<path d="M142.617 5.65235C142.5 5 142.663 5.20649 142.937 5.49999C143.146 5.72572 143.366 5.94226 143.578 6.16492C143.789 6.21754 144.289 5.94738 144.5 6C144.074 6.30392 143.864 6.98762 144.082 7.37727C144.242 7.66157 144.035 7.60274 143.874 7.57344C143.211 7.16294 142.977 7.74882 142.599 8.15786C142.781 7.2401 142.375 6.80784 141.5 6.75082C141.869 6.31007 142.827 6.57071 142.62 5.65243L142.617 5.65235Z" fill="white"/>
<path d="M127.373 19.6988C126.75 19.6988 126.158 19.518 125.596 19.1566C125.033 18.8152 124.612 18.2831 124.331 17.5602C124.23 17.2992 124.16 17.018 124.12 16.7168C124.08 16.4156 124.059 16.1345 124.059 15.8735V15.6024C124.059 15.4417 124.07 15.2811 124.09 15.1205C124.13 14.9598 124.22 14.8795 124.361 14.8795C124.401 14.8795 124.421 14.8996 124.421 14.9397C124.421 15.0602 124.411 15.1907 124.391 15.3313C124.391 15.4518 124.391 15.5723 124.391 15.6927C124.391 16.6365 124.622 17.3494 125.084 17.8313C125.566 18.3132 126.158 18.5542 126.861 18.5542C127.564 18.5542 128.246 18.3534 128.909 17.9518C129.572 17.5502 130.184 17.0381 130.746 16.4156C131.308 15.7931 131.841 15.0201 132.343 14.0964C132.845 13.1727 133.317 12.1988 133.758 11.1747C134.2 10.1305 134.612 9.10639 134.993 8.10238C135.395 7.09836 135.766 6.20478 136.108 5.42165C136.308 4.9598 136.68 4.56824 137.222 4.24695C137.784 3.92567 138.317 3.69474 138.819 3.55418C138.678 3.5341 138.537 3.52406 138.397 3.52406C138.276 3.50398 138.156 3.4839 138.035 3.46382L133.788 3.04213C133.467 3.00197 133.045 2.97185 132.523 2.95177C132.001 2.93169 131.449 2.92165 130.867 2.92165C130.084 2.92165 129.28 2.97185 128.457 3.07225C127.634 3.15257 126.891 3.30318 126.228 3.52406C125.566 3.74494 125.084 4.07627 124.782 4.51804C124.622 4.759 124.541 5.04013 124.541 5.36141C124.541 5.6827 124.632 5.9839 124.813 6.26503C124.993 6.54615 125.224 6.76703 125.505 6.92768C125.545 6.96784 125.566 6.99796 125.566 7.01804C125.566 7.07828 125.515 7.12848 125.415 7.16864C125.335 7.2088 125.244 7.2088 125.144 7.16864C124.963 7.06824 124.752 6.89756 124.511 6.65659C124.27 6.41563 124.049 6.16462 123.849 5.90358C123.668 5.62245 123.537 5.39153 123.457 5.21081C123.337 4.86944 123.276 4.56824 123.276 4.30719C123.276 3.82526 123.437 3.4337 123.758 3.13249C124.1 2.81121 124.531 2.57024 125.053 2.4096C125.596 2.22888 126.168 2.10839 126.77 2.04815C127.393 1.96783 127.985 1.92767 128.547 1.92767C128.768 1.92767 128.979 1.92767 129.18 1.92767C129.381 1.92767 129.572 1.93771 129.752 1.95779C130.395 1.99795 131.068 2.03811 131.77 2.07828C132.473 2.11844 133.186 2.16864 133.909 2.22888L138.698 2.62045C139.019 2.64053 139.501 2.68068 140.144 2.74093C140.806 2.78109 141.479 2.80117 142.162 2.80117C142.905 2.80117 143.588 2.76101 144.21 2.68069C144.833 2.58028 145.244 2.4096 145.445 2.16864C145.485 2.08831 145.545 2.06823 145.626 2.1084C145.706 2.14856 145.726 2.19876 145.686 2.259C145.626 2.49996 145.545 2.68069 145.445 2.80117C145.345 3.00197 145.204 3.22285 145.023 3.46382C144.863 3.70478 144.612 3.86542 144.27 3.94575C144.19 3.96583 144.08 3.98591 143.939 4.00599C143.798 4.00599 143.648 4.00599 143.487 4.00599C143.025 4.00599 142.463 3.97587 141.8 3.91563C141.158 3.8353 140.525 3.75498 139.903 3.67466C139.3 3.77506 138.778 4.05619 138.337 4.51804C137.895 4.97988 137.513 5.51201 137.192 6.11442C136.871 6.69675 136.59 7.24896 136.349 7.77105C135.907 8.67467 135.535 9.508 135.234 10.2711C134.953 11.014 134.602 11.8373 134.18 12.7409C133.758 13.6646 133.317 14.5783 132.855 15.4819C132.393 16.3654 131.831 17.1686 131.168 17.8915C130.666 18.4337 130.084 18.8654 129.421 19.1867C128.758 19.5281 128.076 19.6988 127.373 19.6988Z" fill="white"/>
<path d="M109.089 18.9759C109.009 18.9759 109.009 18.8855 109.089 18.7048C109.19 18.5241 109.28 18.3233 109.36 18.1024C109.461 17.8815 109.561 17.6405 109.661 17.3795C109.862 16.8976 110.083 16.3554 110.324 15.753C110.565 15.1506 110.796 14.5682 111.017 14.006C111.238 13.4237 111.428 12.9317 111.589 12.5301C111.77 12.1084 111.89 11.8373 111.951 11.7168C111.669 12.018 111.328 12.3996 110.926 12.8614C110.545 13.3032 110.183 13.7349 109.842 14.1566C109.501 14.5783 109.24 14.9096 109.059 15.1506C108.999 15.2309 108.949 15.2711 108.908 15.2711C108.868 15.2711 108.848 15.2209 108.848 15.1205C108.848 14.9598 108.898 14.8092 108.999 14.6686C109.38 14.1867 109.802 13.6445 110.264 13.0421C110.746 12.4397 111.177 11.8875 111.559 11.3855C111.941 10.8634 112.181 10.5221 112.282 10.3614C112.503 10.3213 112.824 10.261 113.246 10.1807C113.688 10.1004 113.989 9.98993 114.149 9.84936C114.21 9.78912 114.27 9.759 114.33 9.759C114.37 9.759 114.39 9.79916 114.39 9.87949C114.41 9.93973 114.39 10.01 114.33 10.0903C114.21 10.2309 113.999 10.5622 113.698 11.0843C113.416 11.5863 113.105 12.1486 112.764 12.7711C112.443 13.3935 112.141 13.9558 111.86 14.4578C112.101 14.1365 112.362 13.8253 112.643 13.5241C112.924 13.2229 113.196 12.9317 113.457 12.6506C113.698 12.4096 114.029 12.1084 114.451 11.747C114.872 11.3855 115.314 11.0542 115.776 10.753C116.238 10.4518 116.639 10.2811 116.981 10.2409C117.061 10.2209 117.131 10.2108 117.192 10.2108C117.272 10.2108 117.332 10.2108 117.372 10.2108C117.814 10.2108 118.035 10.3715 118.035 10.6927C118.035 10.9337 117.904 11.255 117.643 11.6566C117.503 11.8775 117.282 12.249 116.981 12.7711C116.7 13.2731 116.408 13.8253 116.107 14.4277C115.826 15.01 115.575 15.5622 115.354 16.0843C115.153 16.5863 115.053 16.9578 115.053 17.1988C115.053 17.4799 115.194 17.6205 115.475 17.6205C115.816 17.6205 116.188 17.4498 116.589 17.1084C117.011 16.767 117.463 16.3353 117.945 15.8132C118.426 15.2711 118.908 14.6988 119.39 14.0964C119.43 14.1365 119.451 14.2068 119.451 14.3072C119.451 14.4478 119.4 14.5883 119.3 14.7289C119.22 14.8494 119.139 14.9598 119.059 15.0602C118.858 15.3213 118.587 15.6526 118.246 16.0542C117.924 16.4357 117.593 16.8172 117.252 17.1988C116.91 17.5602 116.599 17.8514 116.318 18.0723C116.117 18.2128 115.856 18.3634 115.535 18.5241C115.214 18.6847 114.892 18.765 114.571 18.765C114.21 18.765 113.959 18.6747 113.818 18.4939C113.677 18.2931 113.607 18.0522 113.607 17.7711C113.607 17.4498 113.667 17.1084 113.788 16.747C113.908 16.3855 114.039 16.0441 114.179 15.7229C114.34 15.3815 114.461 15.1305 114.541 14.9699C114.902 14.267 115.234 13.6044 115.535 12.9819C115.836 12.3594 116.047 11.9176 116.167 11.6566C116.228 11.5361 116.258 11.4357 116.258 11.3554C116.258 11.2148 116.147 11.2048 115.926 11.3253C115.706 11.4458 115.434 11.6265 115.113 11.8674C114.812 12.1084 114.531 12.3494 114.27 12.5903C114.009 12.8112 113.838 12.9618 113.758 13.0421C113.015 13.8253 112.362 14.6988 111.8 15.6626C111.258 16.6064 110.796 17.5803 110.414 18.5843C110.153 18.6044 109.892 18.6747 109.631 18.7952C109.37 18.9156 109.19 18.9759 109.089 18.9759Z" fill="white"/>
<path d="M104.151 18.6145C103.95 18.6145 103.779 18.5743 103.639 18.494C103.498 18.4137 103.428 18.2631 103.428 18.0422C103.428 17.7611 103.498 17.4398 103.639 17.0783C103.779 16.7169 103.94 16.3655 104.121 16.0241C104.301 15.6627 104.462 15.3715 104.603 15.1506C103.9 15.8936 103.167 16.5964 102.404 17.259C102.022 17.5803 101.601 17.8815 101.139 18.1627C100.677 18.4438 100.185 18.5843 99.6628 18.5843C99.462 18.5843 99.3214 18.5241 99.2411 18.4036C99.1608 18.2631 99.1206 18.1024 99.1206 17.9217C99.1206 17.8213 99.1306 17.751 99.1507 17.7109C99.2511 16.9277 99.5021 16.1145 99.9037 15.2711C100.305 14.4277 100.797 13.6345 101.38 12.8916C101.962 12.1486 102.554 11.5462 103.157 11.0843C103.839 10.5623 104.593 10.3012 105.416 10.3012H108.88C108.98 10.3012 109.03 10.3414 109.03 10.4217C109.03 10.5823 108.94 10.6627 108.759 10.6627C108.558 10.6627 108.358 10.7932 108.157 11.0542C107.956 11.2952 107.805 11.496 107.705 11.6566C107.564 11.8775 107.344 12.249 107.042 12.7711C106.741 13.2932 106.43 13.8655 106.109 14.488C105.807 15.0904 105.546 15.6526 105.325 16.1747C105.105 16.6968 104.994 17.0783 104.994 17.3193C104.994 17.6004 105.135 17.741 105.416 17.741C105.717 17.741 106.058 17.6004 106.44 17.3193C106.821 17.0382 107.203 16.6968 107.584 16.2952C107.986 15.8735 108.348 15.4619 108.669 15.0602C109.01 14.6386 109.281 14.3072 109.482 14.0663C109.603 14.1868 109.593 14.3574 109.452 14.5783C109.331 14.7791 109.221 14.9398 109.121 15.0602C108.719 15.5823 108.257 16.1245 107.735 16.6868C107.213 17.2289 106.641 17.6908 106.018 18.0723C105.416 18.4337 104.793 18.6145 104.151 18.6145ZM100.898 17.5602C101.139 17.5602 101.47 17.3896 101.892 17.0482C102.333 16.6868 102.805 16.245 103.307 15.7229C103.809 15.1807 104.281 14.6185 104.723 14.0362C105.165 13.4337 105.526 12.8916 105.807 12.4096C106.109 11.9076 106.259 11.5261 106.259 11.2651C106.259 11.0442 106.189 10.8936 106.048 10.8133C105.928 10.7329 105.767 10.6928 105.566 10.6928C105.245 10.6928 104.894 10.8133 104.512 11.0542C104.151 11.2751 103.86 11.496 103.639 11.7169C103.398 11.9378 103.107 12.2892 102.765 12.7711C102.444 13.2329 102.123 13.745 101.801 14.3072C101.48 14.8695 101.209 15.4117 100.988 15.9337C100.767 16.4558 100.657 16.8775 100.657 17.1988C100.657 17.4398 100.737 17.5602 100.898 17.5602Z" fill="white"/>
<path d="M95.6804 18.6747C95.1784 18.6747 94.7969 18.504 94.5358 18.1626C94.3752 17.9217 94.2145 17.5602 94.0539 17.0783C93.8933 16.5964 93.7527 16.0944 93.6322 15.5723C93.5117 15.0502 93.4113 14.6285 93.331 14.3072C92.7687 15.0301 92.2667 15.753 91.825 16.4759C91.4033 17.1988 91.1222 17.761 90.9816 18.1626C90.9414 18.2831 90.8009 18.3835 90.5599 18.4638C90.339 18.5442 90.1181 18.5843 89.8973 18.5843C89.576 18.5843 89.4555 18.4839 89.5358 18.2831C90.1583 16.8976 90.7507 15.5622 91.3129 14.2771C91.8752 12.992 92.4675 11.6968 93.09 10.3915C93.7326 9.08632 94.4555 7.7309 95.2587 6.32528C95.821 5.30118 96.4937 4.31724 97.2768 3.37347C98.08 2.40961 98.9334 1.62648 99.837 1.02407C100.741 0.401578 101.654 0.090332 102.578 0.090332C102.879 0.090332 103.16 0.170654 103.421 0.331297C103.682 0.49194 103.813 0.742944 103.813 1.08431V1.9578C103.813 2.03813 103.753 2.07829 103.632 2.07829C103.572 2.07829 103.542 2.05821 103.542 2.01804C103.542 1.69676 103.401 1.48592 103.12 1.38551C102.839 1.26503 102.568 1.20479 102.307 1.20479C101.604 1.20479 100.891 1.34535 100.168 1.62648C99.3651 1.94776 98.6925 2.42969 98.1503 3.07226C97.6081 3.71483 97.1061 4.39756 96.6443 5.12046C96.0418 6.04415 95.4495 7.12849 94.8671 8.37347C94.2848 9.59837 93.7426 10.8333 93.2406 12.0783C92.7587 13.3233 92.327 14.4478 91.9455 15.4518C92.1663 15.1707 92.3872 14.8895 92.6081 14.6084C92.829 14.3273 93.0398 14.0662 93.2406 13.8253C93.2406 13.7851 93.2306 13.745 93.2105 13.7048C93.2105 13.6646 93.2105 13.6245 93.2105 13.5843C93.2105 13.4438 93.2406 13.3233 93.3009 13.2229C93.3611 13.1225 93.4414 13.002 93.5418 12.8614C93.6824 12.6606 93.8129 12.51 93.9334 12.4096C94.0539 12.2891 94.1844 12.1385 94.325 11.9578L94.4153 12.4699C95.2989 11.5662 96.072 10.9136 96.7346 10.512C97.1965 10.2309 97.6483 10.0903 98.09 10.0903C98.5318 10.0903 98.7527 10.261 98.7527 10.6024C98.7527 10.8835 98.6121 11.2349 98.331 11.6566C98.2306 11.7972 98.1704 11.8976 98.1503 11.9578C98.1302 12.0181 98.09 12.0783 98.0298 12.1385C98.0097 12.1586 97.9696 12.1586 97.9093 12.1385C97.8491 12.1185 97.819 12.0883 97.819 12.0482C97.819 11.8072 97.7386 11.6566 97.578 11.5964C97.4174 11.516 97.2366 11.4759 97.0358 11.4759C96.6543 11.4759 96.2427 11.6164 95.8009 11.8976C95.3792 12.1586 94.9475 12.5201 94.5057 12.9819C94.6061 13.4839 94.7165 14.0361 94.837 14.6385C94.9776 15.2209 95.1282 15.763 95.2888 16.265C95.4495 16.7671 95.6001 17.1385 95.7406 17.3795C95.841 17.5401 95.9816 17.6506 96.1623 17.7108C96.343 17.751 96.4937 17.7711 96.6141 17.7711C96.8953 17.7711 97.2165 17.6305 97.578 17.3494C97.9595 17.0482 98.341 16.6968 98.7226 16.2952C99.1242 15.8735 99.4856 15.4618 99.8069 15.0602C100.148 14.6586 100.409 14.3373 100.59 14.0964C100.67 14.1968 100.69 14.2972 100.65 14.3976C100.63 14.5181 100.57 14.6486 100.47 14.7891C100.389 14.9096 100.309 15.0201 100.229 15.1205C99.827 15.6225 99.3953 16.1345 98.9334 16.6566C98.4716 17.1586 97.9796 17.6104 97.4575 18.012C97.2366 18.1928 96.9655 18.3534 96.6443 18.494C96.323 18.6144 96.0017 18.6747 95.6804 18.6747Z" fill="white"/>
<path d="M85.5316 18.6145C85.3308 18.6145 85.1601 18.5743 85.0195 18.494C84.879 18.4137 84.8087 18.2631 84.8087 18.0422C84.8087 17.7611 84.879 17.4398 85.0195 17.0783C85.1601 16.7169 85.3207 16.3655 85.5015 16.0241C85.6822 15.6627 85.8428 15.3715 85.9834 15.1506C85.2806 15.8936 84.5477 16.5964 83.7846 17.259C83.4031 17.5803 82.9814 17.8815 82.5195 18.1627C82.0577 18.4438 81.5657 18.5843 81.0436 18.5843C80.8428 18.5843 80.7023 18.5241 80.6219 18.4036C80.5416 18.2631 80.5015 18.1024 80.5015 17.9217C80.5015 17.8213 80.5115 17.751 80.5316 17.7109C80.632 16.9277 80.883 16.1145 81.2846 15.2711C81.6862 14.4277 82.1782 13.6345 82.7605 12.8916C83.3428 12.1486 83.9352 11.5462 84.5376 11.0843C85.2203 10.5623 85.9734 10.3012 86.7966 10.3012H90.2605C90.3609 10.3012 90.4111 10.3414 90.4111 10.4217C90.4111 10.5823 90.3207 10.6627 90.14 10.6627C89.9392 10.6627 89.7384 10.7932 89.5376 11.0542C89.3368 11.2952 89.1862 11.496 89.0858 11.6566C88.9452 11.8775 88.7244 12.249 88.4232 12.7711C88.122 13.2932 87.8107 13.8655 87.4894 14.488C87.1882 15.0904 86.9272 15.6526 86.7063 16.1747C86.4854 16.6968 86.375 17.0783 86.375 17.3193C86.375 17.6004 86.5155 17.741 86.7966 17.741C87.0979 17.741 87.4392 17.6004 87.8207 17.3193C88.2023 17.0382 88.5838 16.6968 88.9653 16.2952C89.3669 15.8735 89.7284 15.4619 90.0497 15.0602C90.391 14.6386 90.6621 14.3072 90.8629 14.0663C90.9834 14.1868 90.9734 14.3574 90.8328 14.5783C90.7123 14.7791 90.6019 14.9398 90.5015 15.0602C90.0999 15.5823 89.638 16.1245 89.1159 16.6868C88.5938 17.2289 88.0215 17.6908 87.3991 18.0723C86.7966 18.4337 86.1742 18.6145 85.5316 18.6145ZM82.2786 17.5602C82.5195 17.5602 82.8509 17.3896 83.2725 17.0482C83.7143 16.6868 84.1862 16.245 84.6882 15.7229C85.1902 15.1807 85.6621 14.6185 86.1039 14.0362C86.5456 13.4337 86.9071 12.8916 87.1882 12.4096C87.4894 11.9076 87.64 11.5261 87.64 11.2651C87.64 11.0442 87.5697 10.8936 87.4292 10.8133C87.3087 10.7329 87.1481 10.6928 86.9473 10.6928C86.626 10.6928 86.2746 10.8133 85.893 11.0542C85.5316 11.2751 85.2404 11.496 85.0195 11.7169C84.7786 11.9378 84.4874 12.2892 84.146 12.7711C83.8248 13.2329 83.5035 13.745 83.1822 14.3072C82.8609 14.8695 82.5898 15.4117 82.3689 15.9337C82.148 16.4558 82.0376 16.8775 82.0376 17.1988C82.0376 17.4398 82.1179 17.5602 82.2786 17.5602Z" fill="white"/>
<path d="M77.039 18.7048C76.7378 18.7048 76.4667 18.6446 76.2257 18.5241C76.0048 18.4036 75.8944 18.1827 75.8944 17.8615C75.8944 17.6807 75.9345 17.4799 76.0149 17.259C76.1956 16.7972 76.4365 16.235 76.7378 15.5723C77.059 14.9096 77.3803 14.2671 77.7016 13.6446C78.0229 13.002 78.2739 12.4799 78.4546 12.0783C78.5751 11.8374 78.6353 11.6667 78.6353 11.5663C78.6353 11.3856 78.5349 11.3454 78.3341 11.4458C78.1333 11.5462 77.9124 11.6868 77.6715 11.8675C77.4305 12.0482 77.2498 12.1888 77.1293 12.2892C76.6072 12.7711 76.055 13.3434 75.4727 14.006C74.9104 14.6486 74.3884 15.3313 73.9064 16.0542C73.4446 16.757 73.0831 17.4599 72.8221 18.1627C72.802 18.2831 72.6715 18.3835 72.4305 18.4639C72.1896 18.5442 71.9687 18.5844 71.7679 18.5844C71.4466 18.5844 71.3261 18.484 71.4064 18.2831C71.8683 17.239 72.3402 16.0843 72.8221 14.8193C73.3241 13.5542 73.8863 12.259 74.5088 10.9337C74.9707 9.92973 75.4827 8.89559 76.045 7.83133C76.6273 6.76707 77.2699 5.75302 77.9727 4.78916C78.6755 3.80522 79.4486 2.94177 80.292 2.1988C81.0349 1.55623 81.8482 1.03414 82.7317 0.63253C83.6353 0.210843 84.6092 0 85.6534 0C86.1153 0 86.5169 0.100402 86.8582 0.301205C87.1996 0.481928 87.3904 0.813253 87.4305 1.29518V1.56627C87.4305 1.84739 87.4004 2.12852 87.3402 2.40964C87.3201 2.48996 87.2398 2.53012 87.0992 2.53012C87.039 2.53012 87.0189 2.52008 87.039 2.5C87.1193 1.97791 86.9787 1.60643 86.6173 1.38554C86.2759 1.16466 85.8341 1.05422 85.292 1.05422C84.308 1.05422 83.4044 1.23494 82.5811 1.59639C81.7578 1.95783 80.9948 2.43976 80.292 3.04217C79.2076 3.98595 78.2639 5.19077 77.4606 6.65663C76.6574 8.1225 75.9647 9.61848 75.3823 11.1446C75.1012 11.8876 74.8201 12.6305 74.539 13.3735C74.2779 14.1165 74.0269 14.8092 73.7859 15.4518C74.6896 14.247 75.553 13.2129 76.3763 12.3494C77.2197 11.486 77.9526 10.8735 78.5751 10.5121C79.0771 10.2309 79.5289 10.0904 79.9305 10.0904C80.312 10.0904 80.5028 10.251 80.5028 10.5723C80.5028 10.8534 80.3622 11.2149 80.0811 11.6566C79.9406 11.8775 79.7197 12.249 79.4185 12.7711C79.1373 13.2932 78.8361 13.8655 78.5149 14.488C78.2137 15.0904 77.9526 15.6526 77.7317 16.1747C77.5108 16.6968 77.4004 17.0783 77.4004 17.3193C77.4004 17.6406 77.541 17.8012 77.8221 17.8012C77.9827 17.8012 78.1635 17.751 78.3643 17.6506C78.5851 17.5502 78.7458 17.4599 78.8462 17.3795C79.3884 16.9779 79.9205 16.486 80.4426 15.9036C80.9647 15.3213 81.4064 14.8092 81.7679 14.3675C81.788 14.3474 81.798 14.3775 81.798 14.4578C81.798 14.5382 81.7779 14.6586 81.7378 14.8193C81.7177 14.9599 81.6574 15.0803 81.557 15.1807C81.3361 15.4819 81.1052 15.7731 80.8643 16.0542C80.6434 16.3153 80.4225 16.5763 80.2016 16.8374C79.8201 17.2791 79.3582 17.7008 78.8161 18.1024C78.294 18.504 77.7016 18.7048 77.039 18.7048Z" fill="white"/>
<path d="M67.8149 18.6145C67.6141 18.6145 67.4434 18.5743 67.3028 18.494C67.1623 18.4137 67.092 18.2631 67.092 18.0422C67.092 17.7611 67.1623 17.4297 67.3028 17.0482C67.4635 16.6667 67.6341 16.2851 67.8149 15.9036C67.9956 15.5221 68.1462 15.2108 68.2667 14.9699C68.3671 14.7892 68.4976 14.508 68.6582 14.1265C68.839 13.7249 69.0197 13.3133 69.2004 12.8916C69.4012 12.4498 69.5619 12.0783 69.6823 11.7771C69.8229 11.4759 69.8932 11.3253 69.8932 11.3253C69.7125 11.5261 69.4715 11.8072 69.1703 12.1687C68.8892 12.5301 68.5779 12.9117 68.2366 13.3133C67.9153 13.6948 67.6141 14.0562 67.3329 14.3976C67.0719 14.739 66.8811 14.99 66.7606 15.1506C66.7004 15.2309 66.6502 15.2711 66.61 15.2711C66.5699 15.2711 66.5498 15.2209 66.5498 15.1205C66.5498 14.9598 66.6 14.8092 66.7004 14.6687C66.9414 14.3675 67.2325 14.006 67.5739 13.5843C67.9153 13.1426 68.2566 12.7008 68.598 12.259C68.9594 11.8173 69.2707 11.4257 69.5317 11.0843C69.3711 11.0843 69.1602 11.0944 68.8992 11.1145C68.6582 11.1345 68.4374 11.1647 68.2366 11.2048C68.0357 11.2249 67.9253 11.2349 67.9052 11.2349C67.8048 11.2349 67.8149 11.1546 67.9353 10.994C68.0558 10.8333 68.2165 10.6727 68.4173 10.5121C68.6181 10.3514 68.7687 10.2711 68.8691 10.2711C68.8892 10.2711 69.0498 10.2811 69.351 10.3012C69.6522 10.3012 69.8731 10.3012 70.0137 10.3012C70.4153 9.75904 70.8068 9.13655 71.1884 8.43374C71.59 7.73093 71.9815 6.95783 72.3631 6.11446C72.5237 6.09438 72.7948 5.98394 73.1763 5.78313C73.5779 5.56225 73.8892 5.34137 74.11 5.12048C74.2105 5.02008 74.2908 4.96988 74.351 4.96988C74.4715 4.96988 74.4715 5.0502 74.351 5.21084C74.2105 5.37149 73.9695 5.71285 73.6281 6.23494C73.2868 6.73695 72.9052 7.3494 72.4835 8.07229C72.0619 8.7751 71.6603 9.51808 71.2787 10.3012H73.7185C73.9394 10.3012 74.0498 10.3313 74.0498 10.3916C74.0498 10.4719 73.8992 10.5522 73.598 10.6325C73.2566 10.7329 72.8952 10.7932 72.5137 10.8133C72.1522 10.8333 71.8109 10.8735 71.4896 10.9337C71.1884 10.994 70.9675 11.1245 70.8269 11.3253C70.7064 11.4659 70.5358 11.7671 70.3149 12.2289C70.094 12.6908 69.853 13.2229 69.592 13.8253C69.351 14.4076 69.1402 15 68.9594 15.6024C68.7787 16.1847 68.6683 16.6767 68.6281 17.0783V17.1988C68.6281 17.3594 68.6783 17.49 68.7787 17.5904C68.8791 17.6908 68.9795 17.741 69.0799 17.741C69.341 17.741 69.6723 17.5803 70.0739 17.259C70.4956 16.9378 70.9273 16.5562 71.3691 16.1145C71.8109 15.6526 72.1924 15.2309 72.5137 14.8494C72.6542 14.6888 72.7747 14.5382 72.8751 14.3976C72.9956 14.257 73.0659 14.1667 73.086 14.1265C73.1261 14.2068 73.1462 14.2671 73.1462 14.3072C73.1462 14.4277 73.106 14.5582 73.0257 14.6988C72.9655 14.8394 72.8952 14.9598 72.8149 15.0602C72.4333 15.5623 71.9715 16.0944 71.4293 16.6566C70.8872 17.1988 70.3048 17.6607 69.6823 18.0422C69.0799 18.4237 68.4574 18.6145 67.8149 18.6145Z" fill="white"/>
<path d="M62.1561 18.5843C61.5537 18.5843 61.142 18.4438 60.9212 18.1626C60.7003 17.8614 60.5898 17.5 60.5898 17.0783C60.5898 16.516 60.7103 15.9136 60.9513 15.2711C61.2123 14.6285 61.4232 14.1265 61.5838 13.765C61.3228 14.0462 61.0718 14.3173 60.8308 14.5783C60.5898 14.8393 60.4192 15.0301 60.3188 15.1506C60.2585 15.2309 60.2083 15.2711 60.1682 15.2711C60.128 15.2711 60.1079 15.2209 60.1079 15.1205C60.1079 14.9598 60.1581 14.8092 60.2585 14.6687C60.5396 14.3072 60.8609 13.9257 61.2224 13.5241C61.5838 13.1225 61.9352 12.7008 62.2766 12.259C62.6782 11.516 63.12 10.6526 63.6019 9.66865C64.1039 8.66464 64.6159 7.64054 65.138 6.59636C65.6802 5.5321 66.2023 4.55821 66.7043 3.67467C67.2264 2.77106 67.6882 2.04816 68.0898 1.506C68.4312 1.36543 68.7525 1.18471 69.0537 0.963827C69.375 0.742943 69.6862 0.542139 69.9874 0.361416C70.3087 0.160613 70.64 0.0602112 70.9814 0.0602112C71.2023 0.0602112 71.3629 0.120452 71.4633 0.240934C71.5838 0.361417 71.6641 0.501979 71.7043 0.662621C71.7244 0.722862 71.7344 0.833304 71.7344 0.993947C71.7344 1.45579 71.5738 2.01804 71.2525 2.6807C70.9513 3.34335 70.5898 3.99596 70.1682 4.63853C69.7665 5.26102 69.4151 5.77307 69.1139 6.17467C68.3107 7.29917 67.4874 8.32327 66.6441 9.24697C65.8007 10.1506 65.0376 10.9136 64.3549 11.5361C63.6922 12.1385 63.2103 12.5803 62.9091 12.8614C62.7686 13.1225 62.5979 13.4739 62.3971 13.9156C62.2163 14.3373 62.0557 14.7891 61.9151 15.2711C61.7746 15.7329 61.7043 16.1646 61.7043 16.5662C61.7043 16.9076 61.7846 17.1988 61.9453 17.4397C62.1059 17.6606 62.377 17.7711 62.7585 17.7711C62.8188 17.7711 62.879 17.7711 62.9392 17.7711C62.9995 17.7711 63.0698 17.761 63.1501 17.7409C63.4914 17.6807 63.8629 17.4899 64.2645 17.1687C64.6661 16.8474 65.0678 16.4759 65.4694 16.0542C65.871 15.6325 66.2324 15.2309 66.5537 14.8494C66.6943 14.6887 66.8248 14.5381 66.9453 14.3976C67.0657 14.2369 67.1461 14.1265 67.1862 14.0662C67.3268 14.2068 67.3167 14.3875 67.1561 14.6084C67.0155 14.8092 66.8951 14.9799 66.7947 15.1205C66.6541 15.3012 66.4533 15.5522 66.1922 15.8735C65.9312 16.1747 65.63 16.506 65.2886 16.8675C64.9071 17.249 64.4352 17.6305 63.873 18.012C63.3107 18.3936 62.7384 18.5843 62.1561 18.5843ZM63.4212 11.6566C64.0437 11.1345 64.8268 10.3915 65.7706 9.42769C66.7344 8.44375 67.6782 7.25901 68.6019 5.87347C68.7023 5.71283 68.8629 5.44174 69.0838 5.06021C69.3248 4.67869 69.5657 4.24696 69.8067 3.76503C70.0678 3.26303 70.2886 2.7811 70.4694 2.31925C70.6501 1.83732 70.7404 1.42567 70.7404 1.08431C70.7404 0.763023 70.6501 0.60238 70.4694 0.60238C70.2485 0.60238 69.9573 0.793144 69.5959 1.17467C69.1742 1.61644 68.6923 2.26905 68.1501 3.1325C67.628 3.97588 67.0758 4.91965 66.4935 5.96383C65.9111 7.00801 65.3489 8.03211 64.8067 9.03612C64.2846 10.0401 63.8228 10.9136 63.4212 11.6566Z" fill="white"/>
<path d="M55.411 18.6145C55.2102 18.6145 55.0395 18.5743 54.8989 18.494C54.7584 18.4137 54.6881 18.2631 54.6881 18.0422C54.6881 17.7611 54.7584 17.4398 54.8989 17.0783C55.0395 16.7169 55.2001 16.3655 55.3809 16.0241C55.5616 15.6627 55.7222 15.3715 55.8628 15.1506C55.16 15.8936 54.427 16.5964 53.664 17.259C53.2825 17.5803 52.8608 17.8815 52.3989 18.1627C51.9371 18.4438 51.4451 18.5843 50.923 18.5843C50.7222 18.5843 50.5817 18.5241 50.5013 18.4036C50.421 18.2631 50.3809 18.1024 50.3809 17.9217C50.3809 17.8213 50.3909 17.751 50.411 17.7109C50.5114 16.9277 50.7624 16.1145 51.164 15.2711C51.5656 14.4277 52.0576 13.6345 52.6399 12.8916C53.2222 12.1486 53.8146 11.5462 54.417 11.0843C55.0997 10.5623 55.8527 10.3012 56.676 10.3012H60.1399C60.2403 10.3012 60.2905 10.3414 60.2905 10.4217C60.2905 10.5823 60.2001 10.6627 60.0194 10.6627C59.8186 10.6627 59.6178 10.7932 59.417 11.0542C59.2162 11.2952 59.0656 11.496 58.9652 11.6566C58.8246 11.8775 58.6038 12.249 58.3025 12.7711C58.0013 13.2932 57.6901 13.8655 57.3688 14.488C57.0676 15.0904 56.8066 15.6526 56.5857 16.1747C56.3648 16.6968 56.2544 17.0783 56.2544 17.3193C56.2544 17.6004 56.3949 17.741 56.676 17.741C56.9772 17.741 57.3186 17.6004 57.7001 17.3193C58.0817 17.0382 58.4632 16.6968 58.8447 16.2952C59.2463 15.8735 59.6078 15.4619 59.9291 15.0602C60.2704 14.6386 60.5415 14.3072 60.7423 14.0663C60.8628 14.1868 60.8528 14.3574 60.7122 14.5783C60.5917 14.7791 60.4813 14.9398 60.3809 15.0602C59.9793 15.5823 59.5174 16.1245 58.9953 16.6868C58.4732 17.2289 57.9009 17.6908 57.2785 18.0723C56.676 18.4337 56.0536 18.6145 55.411 18.6145ZM52.158 17.5602C52.3989 17.5602 52.7303 17.3896 53.1519 17.0482C53.5937 16.6868 54.0656 16.245 54.5676 15.7229C55.0696 15.1807 55.5415 14.6185 55.9833 14.0362C56.425 13.4337 56.7865 12.8916 57.0676 12.4096C57.3688 11.9076 57.5194 11.5261 57.5194 11.2651C57.5194 11.0442 57.4491 10.8936 57.3086 10.8133C57.1881 10.7329 57.0274 10.6928 56.8266 10.6928C56.5054 10.6928 56.154 10.8133 55.7724 11.0542C55.411 11.2751 55.1198 11.496 54.8989 11.7169C54.658 11.9378 54.3668 12.2892 54.0254 12.7711C53.7042 13.2329 53.3829 13.745 53.0616 14.3072C52.7403 14.8695 52.4692 15.4117 52.2483 15.9337C52.0274 16.4558 51.917 16.8775 51.917 17.1988C51.917 17.4398 51.9973 17.5602 52.158 17.5602Z" fill="white"/>
<path d="M42.4264 20C42.2657 20 42.1352 19.9699 42.0348 19.9096C41.9344 19.8695 41.8942 19.7691 41.9143 19.6084C41.9143 19.5482 41.9444 19.4578 42.0047 19.3373C42.0649 19.2169 42.1051 19.1265 42.1252 19.0663C42.2256 18.7851 42.3159 18.504 42.3962 18.2229C42.4766 17.9217 42.5569 17.6406 42.6372 17.3795C42.9183 16.2751 43.1794 15.1807 43.4203 14.0964C43.6613 12.992 43.8521 11.8875 43.9926 10.7831C44.073 10.1405 44.1733 9.27709 44.2938 8.19276C44.4143 7.08834 44.4746 6.02408 44.4746 4.99998C44.4746 4.59838 44.4645 4.22689 44.4444 3.88552C44.4244 3.52408 44.3742 3.20279 44.2938 2.92167C43.6312 2.92167 42.9685 2.92167 42.3059 2.92167C41.6432 2.90159 40.9906 2.89155 40.348 2.89155C40.0468 2.89155 39.6252 2.91163 39.083 2.95179C38.5609 2.99195 38.0187 3.08231 37.4565 3.22287C36.9143 3.36343 36.4625 3.59436 36.1011 3.91564C35.7396 4.23693 35.579 4.66866 35.6191 5.21082C35.6392 5.37147 35.6994 5.59235 35.7998 5.87348C35.9003 6.13452 35.9705 6.29516 36.0107 6.35541L35.6794 6.59637C35.5589 6.37548 35.4083 6.12448 35.2276 5.84336C35.0468 5.54215 34.8862 5.25099 34.7456 4.96986C34.6051 4.68874 34.5247 4.47789 34.5047 4.33733C34.4846 4.13653 34.4946 3.87548 34.5348 3.5542C34.5749 3.23291 34.7356 2.95179 35.0167 2.71082C35.3179 2.44978 35.7296 2.2791 36.2517 2.19877C36.7938 2.11845 37.346 2.07829 37.9083 2.07829C38.4505 2.07829 38.9725 2.09837 39.4746 2.13853C39.9766 2.17869 40.3882 2.19877 40.7095 2.19877C40.7095 2.19877 40.9404 2.19877 41.4023 2.19877C41.8641 2.19877 42.4464 2.19877 43.1493 2.19877C43.8721 2.17869 44.6352 2.16865 45.4384 2.16865C46.2416 2.16865 46.9746 2.16865 47.6372 2.16865L47.0047 2.95179H44.8962C45.1974 3.51404 45.3882 4.29717 45.4685 5.30119C45.5689 6.3052 45.6191 7.26906 45.6191 8.19276C45.6191 8.57428 45.6191 8.93573 45.6191 9.27709C45.6191 9.61846 45.6091 9.91966 45.589 10.1807C45.5489 11.1245 45.4183 12.259 45.1974 13.5843C44.9766 14.9096 44.6954 16.1646 44.3541 17.3494C45.1774 16.1847 46.1814 14.7992 47.3661 13.1928C48.5709 11.5863 49.9464 9.91967 51.4926 8.19276C53.0589 6.44577 54.7858 4.78914 56.6734 3.22287C57.0549 2.90159 57.5569 2.54014 58.1794 2.13853C58.8019 1.73693 59.4645 1.39556 60.1673 1.11444C60.8701 0.813231 61.5328 0.662628 62.1553 0.662628C62.7376 0.662628 63.1392 0.76303 63.3601 0.963834C63.6011 1.16464 63.7216 1.42568 63.7216 1.74697C63.7216 2.12849 63.6011 2.55018 63.3601 3.01203C63.1392 3.47388 62.9685 3.8554 62.8481 4.15661C62.828 4.21685 62.7376 4.25701 62.577 4.27709C62.4163 4.29717 62.3461 4.26705 62.3661 4.18673C62.4063 4.02609 62.4465 3.83532 62.4866 3.61444C62.5469 3.37347 62.577 3.13251 62.577 2.89155C62.577 2.57026 62.5167 2.2791 62.3963 2.01805C62.2758 1.75701 62.0448 1.6064 61.7035 1.56624C61.6432 1.54616 61.583 1.53612 61.5228 1.53612C61.4625 1.53612 61.4023 1.53612 61.342 1.53612C60.7597 1.53612 60.1272 1.73693 59.4444 2.13853C58.7818 2.52006 58.0087 3.06223 57.1252 3.76504C55.4384 5.11042 53.832 6.59637 52.3059 8.22288C50.7999 9.8293 49.3541 11.5161 47.9685 13.2831C47.2456 14.1867 46.5428 15.1004 45.8601 16.0241C45.1774 16.9478 44.5448 17.9116 43.9625 18.9157C43.9223 18.996 43.8822 19.0863 43.842 19.1867C43.8219 19.3072 43.7918 19.3976 43.7517 19.4578C43.7115 19.498 43.591 19.5582 43.3902 19.6385C43.1894 19.739 42.9886 19.8193 42.7878 19.8795C42.6071 19.9598 42.4866 20 42.4264 20Z" fill="white"/>
<path d="M24.2344 18.765C23.4111 18.765 22.8389 18.6044 22.5176 18.2831C22.1963 17.9618 22.0356 17.5703 22.0356 17.1084C22.0356 16.5261 22.1862 15.9036 22.4875 15.2409C22.8087 14.5783 23.1099 14.016 23.3911 13.5542C23.7124 13.0723 24.1441 12.5703 24.6862 12.0482C25.2284 11.5261 25.8208 11.0843 26.4634 10.7229C27.1059 10.3614 27.7284 10.1807 28.3308 10.1807C28.8529 10.1807 29.2144 10.3112 29.4152 10.5723C29.616 10.8132 29.7164 11.1044 29.7164 11.4458C29.7164 12.0682 29.5256 12.5803 29.1441 12.9819C28.7826 13.3835 28.3308 13.7148 27.7887 13.9759C27.2465 14.2168 26.7244 14.4176 26.2224 14.5783C25.9212 14.6586 25.5698 14.7389 25.1682 14.8193C24.7666 14.8996 24.385 14.9397 24.0236 14.9397C23.883 15.3012 23.7726 15.6526 23.6923 15.994C23.612 16.3353 23.5718 16.6466 23.5718 16.9277C23.5718 17.2691 23.6521 17.5502 23.8128 17.7711C23.9935 17.9919 24.2846 18.1024 24.6862 18.1024C24.8469 18.1024 25.0377 18.0823 25.2585 18.0421C25.4794 18.002 25.7204 17.9417 25.9814 17.8614C26.5838 17.6606 27.1762 17.3393 27.7585 16.8976C28.3409 16.4558 28.873 15.9839 29.3549 15.4819C29.8569 14.9598 30.2385 14.5281 30.4995 14.1867C30.5597 14.247 30.5899 14.3172 30.5899 14.3976C30.5899 14.498 30.5196 14.6586 30.379 14.8795C29.9774 15.4417 29.4553 16.0241 28.8128 16.6265C28.1702 17.2289 27.4573 17.7409 26.6742 18.1626C25.8911 18.5642 25.0778 18.765 24.2344 18.765ZM24.2646 14.3373C24.5256 14.3574 24.8168 14.3574 25.1381 14.3373C25.4794 14.2972 25.8107 14.2269 26.132 14.1265C26.9553 13.8855 27.5477 13.504 27.9091 12.9819C28.2907 12.4397 28.4814 11.9578 28.4814 11.5361C28.4814 11.2952 28.4312 11.0943 28.3308 10.9337C28.2304 10.7731 28.0698 10.6927 27.8489 10.6927C27.2666 10.6927 26.7445 10.9136 26.2826 11.3554C25.8208 11.7771 25.4192 12.269 25.0778 12.8313C24.7365 13.3935 24.4654 13.8956 24.2646 14.3373Z" fill="white"/>
<path d="M18.1215 18.7048C17.8203 18.7048 17.5492 18.6446 17.3082 18.5241C17.0873 18.4036 16.9769 18.1827 16.9769 17.8615C16.9769 17.6807 17.0171 17.4799 17.0974 17.259C17.2781 16.7972 17.5191 16.235 17.8203 15.5723C18.1416 14.9096 18.4628 14.2671 18.7841 13.6446C19.1054 13.002 19.3564 12.4799 19.5371 12.0783C19.6576 11.8374 19.7179 11.6667 19.7179 11.5663C19.7179 11.3856 19.6175 11.3454 19.4167 11.4458C19.2159 11.5462 18.995 11.6868 18.754 11.8675C18.513 12.0482 18.3323 12.1888 18.2118 12.2892C17.6897 12.7711 17.1375 13.3434 16.5552 14.006C15.993 14.6486 15.4709 15.3313 14.9889 16.0542C14.5271 16.757 14.1656 17.4599 13.9046 18.1627C13.8845 18.2831 13.754 18.3835 13.513 18.4639C13.2721 18.5442 13.0512 18.5844 12.8504 18.5844C12.5291 18.5844 12.4086 18.484 12.4889 18.2831C12.9508 17.239 13.4227 16.0843 13.9046 14.8193C14.4066 13.5542 14.9689 12.259 15.5914 10.9337C16.0532 9.92973 16.5652 8.89559 17.1275 7.83133C17.7098 6.76707 18.3524 5.75302 19.0552 4.78916C19.758 3.80522 20.5311 2.94177 21.3745 2.1988C22.1175 1.55623 22.9307 1.03414 23.8142 0.63253C24.7179 0.210843 25.6918 0 26.7359 0C27.1978 0 27.5994 0.100402 27.9408 0.301205C28.2821 0.481928 28.4729 0.813253 28.513 1.29518V1.56627C28.513 1.84739 28.4829 2.12852 28.4227 2.40964C28.4026 2.48996 28.3223 2.53012 28.1817 2.53012C28.1215 2.53012 28.1014 2.52008 28.1215 2.5C28.2018 1.97791 28.0612 1.60643 27.6998 1.38554C27.3584 1.16466 26.9167 1.05422 26.3745 1.05422C25.3906 1.05422 24.4869 1.23494 23.6636 1.59639C22.8404 1.95783 22.0773 2.43976 21.3745 3.04217C20.2902 3.98595 19.3464 5.19077 18.5432 6.65663C17.7399 8.1225 17.0472 9.61848 16.4648 11.1446C16.1837 11.8876 15.9026 12.6305 15.6215 13.3735C15.3604 14.1165 15.1094 14.8092 14.8685 15.4518C15.7721 14.247 16.6355 13.2129 17.4588 12.3494C18.3022 11.486 19.0351 10.8735 19.6576 10.5121C20.1596 10.2309 20.6114 10.0904 21.013 10.0904C21.3946 10.0904 21.5853 10.251 21.5853 10.5723C21.5853 10.8534 21.4448 11.2149 21.1636 11.6566C21.0231 11.8775 20.8022 12.249 20.501 12.7711C20.2199 13.2932 19.9187 13.8655 19.5974 14.488C19.2962 15.0904 19.0351 15.6526 18.8142 16.1747C18.5934 16.6968 18.4829 17.0783 18.4829 17.3193C18.4829 17.6406 18.6235 17.8012 18.9046 17.8012C19.0653 17.8012 19.246 17.751 19.4468 17.6506C19.6677 17.5502 19.8283 17.4599 19.9287 17.3795C20.4709 16.9779 21.003 16.486 21.5251 15.9036C22.0472 15.3213 22.4889 14.8092 22.8504 14.3675C22.8705 14.3474 22.8805 14.3775 22.8805 14.4578C22.8805 14.5382 22.8604 14.6586 22.8203 14.8193C22.8002 14.9599 22.74 15.0803 22.6395 15.1807C22.4187 15.4819 22.1877 15.7731 21.9468 16.0542C21.7259 16.3153 21.505 16.5763 21.2841 16.8374C20.9026 17.2791 20.4408 17.7008 19.8986 18.1024C19.3765 18.504 18.7841 18.7048 18.1215 18.7048Z" fill="white"/>
<path d="M4.09639 19.6988C3.4739 19.6988 2.88153 19.518 2.31928 19.1566C1.75703 18.8152 1.33534 18.2831 1.05422 17.5602C0.953816 17.2992 0.883535 17.018 0.843374 16.7168C0.803214 16.4156 0.783133 16.1345 0.783133 15.8735V15.6024C0.783133 15.4417 0.793173 15.2811 0.813254 15.1205C0.853414 14.9598 0.943776 14.8795 1.08434 14.8795C1.1245 14.8795 1.14458 14.8996 1.14458 14.9397C1.14458 15.0602 1.13454 15.1907 1.11446 15.3313C1.11446 15.4518 1.11446 15.5723 1.11446 15.6927C1.11446 16.6365 1.34538 17.3494 1.80723 17.8313C2.28916 18.3132 2.88153 18.5542 3.58434 18.5542C4.28715 18.5542 4.96988 18.3534 5.63253 17.9518C6.29519 17.5502 6.90764 17.0381 7.46989 16.4156C8.03214 15.7931 8.56426 15.0201 9.06627 14.0964C9.56828 13.1727 10.0402 12.1988 10.4819 11.1747C10.9237 10.1305 11.3354 9.10639 11.7169 8.10238C12.1185 7.09836 12.49 6.20478 12.8313 5.42165C13.0321 4.9598 13.4036 4.56824 13.9458 4.24695C14.508 3.92567 15.0402 3.69474 15.5422 3.55418C15.4016 3.5341 15.2611 3.52406 15.1205 3.52406C15 3.50398 14.8795 3.4839 14.759 3.46382L10.5121 3.04213C10.1908 3.00197 9.76908 2.97185 9.24699 2.95177C8.72491 2.93169 8.1727 2.92165 7.59037 2.92165C6.80723 2.92165 6.00402 2.97185 5.18073 3.07225C4.35743 3.15257 3.61446 3.30318 2.95181 3.52406C2.28916 3.74494 1.80723 4.07627 1.50603 4.51804C1.34538 4.759 1.26506 5.04013 1.26506 5.36141C1.26506 5.6827 1.35542 5.9839 1.53615 6.26503C1.71687 6.54615 1.94779 6.76703 2.22892 6.92768C2.26908 6.96784 2.28916 6.99796 2.28916 7.01804C2.28916 7.07828 2.23896 7.12848 2.13856 7.16864C2.05823 7.2088 1.96787 7.2088 1.86747 7.16864C1.68675 7.06824 1.4759 6.89756 1.23494 6.65659C0.993977 6.41563 0.773093 6.16462 0.57229 5.90358C0.391567 5.62245 0.261044 5.39153 0.180723 5.21081C0.060241 4.86944 0 4.56824 0 4.30719C0 3.82526 0.160643 3.4337 0.481928 3.13249C0.823294 2.81121 1.25502 2.57024 1.77711 2.4096C2.31928 2.22888 2.89157 2.10839 3.49398 2.04815C4.11647 1.96783 4.70884 1.92767 5.27109 1.92767C5.49197 1.92767 5.70282 1.92767 5.90362 1.92767C6.10442 1.92767 6.29519 1.93771 6.47591 1.95779C7.11848 1.99795 7.79117 2.03811 8.49398 2.07828C9.19679 2.11844 9.90965 2.16864 10.6325 2.22888L15.4217 2.62045C15.743 2.64053 16.2249 2.68068 16.8675 2.74093C17.5301 2.78109 18.2028 2.80117 18.8856 2.80117C19.6285 2.80117 20.3113 2.76101 20.9338 2.68069C21.5562 2.58028 21.9679 2.4096 22.1687 2.16864C22.2089 2.08831 22.2691 2.06823 22.3494 2.1084C22.4297 2.14856 22.4498 2.19876 22.4097 2.259C22.3494 2.49996 22.2691 2.68069 22.1687 2.80117C22.0683 3.00197 21.9277 3.22285 21.747 3.46382C21.5864 3.70478 21.3354 3.86542 20.994 3.94575C20.9137 3.96583 20.8032 3.98591 20.6627 4.00599C20.5221 4.00599 20.3715 4.00599 20.2109 4.00599C19.749 4.00599 19.1868 3.97587 18.5241 3.91563C17.8815 3.8353 17.249 3.75498 16.6265 3.67466C16.0241 3.77506 15.502 4.05619 15.0603 4.51804C14.6185 4.97988 14.237 5.51201 13.9157 6.11442C13.5944 6.69675 13.3133 7.24896 13.0723 7.77105C12.6305 8.67467 12.259 9.508 11.9578 10.2711C11.6767 11.014 11.3253 11.8373 10.9036 12.7409C10.4819 13.6646 10.0402 14.5783 9.57832 15.4819C9.11647 16.3654 8.55422 17.1686 7.89157 17.8915C7.38956 18.4337 6.80723 18.8654 6.14458 19.1867C5.48193 19.5281 4.7992 19.6988 4.09639 19.6988Z" fill="white"/>
</svg>
