<svg width="17" height="20" viewBox="0 0 17 20" fill="none" xmlns="http://www.w3.org/2000/svg">
<path fill-rule="evenodd" clip-rule="evenodd" d="M10.9096 0.440877C12.901 -0.542217 15.3667 0.173944 16.4148 2.04085C17.4629 3.90775 16.6983 6.21737 14.7069 7.20046L13.0694 8.01591C14.4801 8.06474 15.8254 8.7988 16.5299 10.0537C17.578 11.9206 16.8151 14.2302 14.822 15.2133L6.09004 19.5591C4.09863 20.5422 1.633 19.8261 0.584886 17.9592C-0.463224 16.0923 0.301381 13.7826 2.29279 12.7995L3.93025 11.9841C2.51959 11.9353 1.17423 11.2012 0.469766 9.94629C-0.578344 8.07939 0.18626 5.76977 2.17767 4.78667L10.9096 0.440877ZM6.19657 6.92214L11.4818 10.013L6.19657 13.0893V6.92214Z" fill="white"/>
</svg>
